<svg id="Capa_1" data-name="Capa 1" xmlns="http://www.w3.org/2000/svg" viewBox="0 0 1033.41 454.25"><title>Mesa de trabajo 1</title><path d="M845.76,217.89c-2.41,8.75-4.77,17.51-7.27,26.24-2.12,7.44-4.4,14.84-6.64,22.37-3.91.69-7.67.19-11.44.31l-13.9-47.75c-1.28,15.81,1,31.54-.26,47.52H790.08V187.09h21.3c4.8,18.32,9.63,36.79,14.47,55.26l.63.1q7.18-27.69,14.37-55.44h21.42v79.6H846.06c-1-16.39.49-32.6.87-48.83a2.93,2.93,0,0,1-.06-.84C846.25,217,846.14,217.58,845.76,217.89Z" style="fill:#6b73a3"/><path d="M275.75,228.84c1,.95.58,2.19.58,3.3q0,72.19,0,144.37c0,1-.1,1.95-.18,3.45-3.47-1.42-4.76-4.89-7.9-6.46-3.12,1.35-4.55,5-7.93,6.78-2.91-1.51-4.46-4.72-7.59-6.79-2.8,1.78-4.71,4.8-7.57,7.17-2.44-2.39-4.89-4.77-7.22-7-3.91,1.19-5.1,5-8,7.08-3.49-1.94-4.9-5.83-8.12-8.06v-3.59q0-47.46,0-94.92c0-1.49.12-3,.18-4.48a31.26,31.26,0,0,1,12.2-8.84,5.42,5.42,0,0,1,3.77.7c1.66,2.39,4.61,2.26,6.89,3.45,5,2.62,5.74,5.19,2.89,10.27-3,1.71-6.48.53-9.59,1.14,4.13.54,8.48-.83,12.58,1.09,5.37,5.9,3.82,11.81,0,17.73-3.52,1.83-7.33.68-11,1.1-1.61.18-3.73-.82-4.55,1.63-.23,2.95-1.57,5.82-.62,8.85.27,4.73.62,9.44,3.56,13.46-.58,2.63,1.64,5,.86,7.61-.71,1-2,.88-2.9,1.71-.24,1.5,1.53,1.34,2,2.28,1.37,3.37-1.39,6.37-.85,9.66-.41,2.24-3.21,4.22-.7,6.77.78,1.77,1.38,3.56.72,5.5-.6,1.44.31,1.68,1.41,1.69,7.86.05,15.73.13,23.6,0,1.18,0,1.9-.4,1.38-1.77-.69-1.77-1.4-3.53-.58-5.45.35-.77,1.24-1,1.71-1.71-.65-1-2.14-.78-2.79-1.8-2.06-3.12-1.93-6.3-.3-9.52.86-1.6,2.85-2.34,3.28-4.29.1-1.93-2.07-2-2.73-3.27-.59-2.27.18-4.44.45-6.64,2.63-4.18,4.65-8.51,3.4-13.65.21-3.16,1.52-6.3.18-9.49a2.38,2.38,0,0,1,.32-1.31c3.25-3.3,2.07-6.29-.65-9.18a16.45,16.45,0,0,1-.61-6.12c0-1.83-.11-3.66-.26-5.49,1.58-5.11,1.71-10.18-.5-15.18a26.49,26.49,0,0,1,0-7.28,19.77,19.77,0,0,0,.51-14.92C267.45,233.85,270.68,230.31,275.75,228.84Z" style="fill:#8ca23e"/><path d="M693.54,187h16v79.6c-5.17.64-10.45.09-16,.32l-22.12-49.09-.89.24v48.55H654.09V187.11h16.5c7.49,16.67,15,33.38,22.95,51.12Z" style="fill:#6b73a3"/><path d="M526.76,266.5V232.16H503.57v34.29c-5.53.81-10.8.13-16,.44-1-3.95-1.43-65.6-.54-79.72H503.4v31.32h23V187.17h15.69c1,3.67,1.39,63.49.49,79.33Z" style="fill:#6b73a3"/><path d="M966.69,241.89h15.43c1.28,1.51,1.38,3.32,1.58,5.12.79,7,10.83,9.9,15.77,6.2s4.31-12.58-1.07-16a61.69,61.69,0,0,0-8.9-4.37,52,52,0,0,1-12.85-7.41c-7.29-5.89-9.16-13.8-7.64-22.33s7.46-13.82,15.75-16.22c5.5-1.59,11-1.26,16.69-.32,10.58,1.77,19.1,13.91,17.15,23.54-2.43,1-5.09.39-7.68.5s-5,0-7.33,0c-1.61-1.59-1-3.62-1.43-5.31a8.71,8.71,0,0,0-8.45-6.38c-4.06-.11-6.83,2-8.14,5.94a8.57,8.57,0,0,0,3.17,10,36.74,36.74,0,0,0,9.15,4.92,49.17,49.17,0,0,1,12.59,6.89c5.31,4.17,8.19,9.46,8.3,16.18.06,3.15.4,6.35-.41,9.44-1.76,6.75-6,11.56-12.53,13.71-10,3.28-19.93,3-29-3.21C969.72,258,966.68,251,966.69,241.89Z" style="fill:#6b73a3"/><path d="M475.68,210.38H460.17c-.89-1.7-.64-3.58-1.13-5.31-.94-3.31-3.79-5.83-8.14-6.11a8.07,8.07,0,0,0-8.2,5.26c-1.48,3.82-.62,7.9,2.46,10.32a34.85,34.85,0,0,0,9.55,5.24,46.55,46.55,0,0,1,13,7.11,19.93,19.93,0,0,1,8,15.32c.14,3.31.48,6.7-.33,9.95-1.74,6.94-6.11,11.87-12.87,14-10.06,3.18-20,2.88-29-3.48-6.92-4.94-10.11-11.91-9.82-20.73h15.34c1.29,1.23,1.4,3,1.55,4.85.61,7.06,10.33,9.84,15.68,6.54,2.18-1.34,3.1-3.9,3.27-6.44.28-4.44-1.09-8.14-5.33-10.35a79.23,79.23,0,0,0-8.07-3.81c-5.76-2.25-11.27-5.11-15.3-9.87-5.83-6.9-7-15.07-3.83-23.34s10-12.39,18.32-13.48c7.43-1,15-.7,21.38,4.29S476.43,201.83,475.68,210.38Z" style="fill:#6b73a3"/><path d="M959.79,213.62H943.16c-.83-2.27-.46-4.62-1.12-6.86-1.84-6.26-7.45-9.31-13.68-7.32-5.28,1.69-6.89,5.81-7.66,10.59-1.46,9.07-.94,18.23-.78,27.35a33,33,0,0,0,1.7,10.21c1.74,5,5.15,7.34,10.61,7.14,5.75-.2,8.11-2.3,9.76-7.91.61-2.09.51-4.23.91-6.23,5.78-1,13.07-.81,16.41.47a45,45,0,0,1-1.81,10.54c-2.74,7.86-8,13.15-16.28,15.25a36.76,36.76,0,0,1-17.25.36c-10.69-2.41-16.46-9.92-19.1-20.09a41,41,0,0,1-1.27-10.83c.11-7.33-.1-14.66.17-22A33.63,33.63,0,0,1,909.1,197c4.8-7.41,11.77-10.92,20.46-11.16a47.25,47.25,0,0,1,9.45.33c9.76,1.76,15.63,7.95,18.69,17.17C958.75,206.53,958.64,209.86,959.79,213.62Z" style="fill:#6b73a3"/><path d="M86.57,364.8l1.47.25c.93,4.18-.14,6.48-3.78,7.43a17.39,17.39,0,0,1-4.45.34c-15.31,0-30.62-.1-45.92.08a11.53,11.53,0,0,1-10.44-5.41c-6.57-9.38-13.19-18.73-20.18-27.79-3.4-4.39-4.4-8.58-1.8-13.71,4.08,2.43,8.15,4.87,12.44,7.44,1.26-2.43.12-4.73,1.19-6.81,4.23,1.11,7.07,4.77,11.28,6.3,1.24-2.15.09-4.59.89-6.68,2.14-.2,3.22,2.72,5.49,1.62l.51.1a6.62,6.62,0,0,1,.9.5l.45.26c.31.14.62.3.93.46a10.56,10.56,0,0,1,1,.48c.48.24.94.5,1.4.79a6.37,6.37,0,0,0,.92.5c1.37-1.11.42-3.34,2.83-4.67,5.55,2.18,10.87,5.4,14.67,10.84,5.59,8,11.06,16.08,17.14,23.72a14.53,14.53,0,0,0,3.83,3.83c.39.23.77.49,1.14.74,2.65,2.14,5,.64,7.46-.5Z" style="fill:#40528f"/><path d="M332.7,266.72H316.13V187.15h44.19v12.62c-9.06.17-18.13,0-27.48.12v20.89H357.3v12.6c-4,1-8.1.31-12.18.43s-7.95,0-12.42,0Z" style="fill:#6b73a3"/><path d="M213.51,241l-.07,24.61c-1.57,2.25-2.94,4.77-6.28,4.6a4.46,4.46,0,0,1-1.82-5.32c5.81-3.77,6.11-5.28,2.52-13-.53-4.3-.66-8.75-4.56-11.74a8.14,8.14,0,0,1-1.46-2.74c-.56-2-.05-4,.22-5.94a37.18,37.18,0,0,0-36.65-42.34c-2.28,0-4.72.46-6.64-1.38V165.1H189.5c10.07,3.68,17.42,10.79,24,18.94q0,10.31,0,20.62-.37.59-.78,1.14c-.92,1.33-2.22,2.36-2.95,3.83-1.72,3.51-.89,6,2.8,8.35a4.55,4.55,0,0,1,1,1c0,2.24-.05,4.48-.08,6.73-.5,1.06,0,2.29-.57,3.35-3.5,3.56-2.82,7.18-.16,10.83C213,240.23,213.27,240.61,213.51,241Z" style="fill:#efcf01"/><path d="M876,187H891.5v79.58c-5,.63-10.1.2-15.49.24Z" style="fill:#6b73a3"/><path d="M572.5,266.71H557V187.1c5-.59,10.1-.2,15.49-.21Z" style="fill:#6b73a3"/><path d="M572.86,320.35c-1.89.84-3.23.51-4.53.56a13.67,13.67,0,0,1-2.11-.29c-.56-2.65-.76-5.28-1.34-7.83-2.35-10.25-11.84-12.55-18.71-11.65-7.47,1-12.24,5.42-14.46,12.57a38.31,38.31,0,0,0-2,12.17c.15,6.83,0,13.66.06,20.49a36.94,36.94,0,0,0,3.89,15.74c3.59,7.39,12.4,9.34,17.65,8.43,9-1.54,12.72-4.76,14.5-16.09.16-1,.18-2,.28-3.11,2.14-.91,4.22-.43,6.25-.43,1.4,17.14-10.54,25.69-22.68,26.13-15.27.54-23.9-10.59-25.75-22.53a120.62,120.62,0,0,1,0-37.69c1.65-10.29,6.93-18.44,17.68-21.2,7-1.8,14.19-1.67,20.65,2.37C570.45,303.13,572.34,311.33,572.86,320.35Z" style="fill:#6b73a3"/><path d="M158.87,210.87q0-9.45,0-18.91c1.72-1.82,4-1.75,6-1.26,10.72,2.56,21,6.1,29.17,14a22.51,22.51,0,0,1,7.06,16.91,67.59,67.59,0,0,1-1.92,14.74c-.47,2.11-1.11,4.21-3.32,5.26a13.77,13.77,0,0,1-7,.21c-1.58-.77-3.16-1.42-4.84-.23a3.73,3.73,0,0,1-3.43-.59c-.71-3.65,1.57-6.64,2.23-10a17.37,17.37,0,0,0-11.93-20.2,13.65,13.65,0,0,0-7.34-.06C162.05,211.17,160.47,212.08,158.87,210.87Z" style="fill:#efcf01"/><path d="M387.66,337.72v37.66c-2.3.75-4.36.47-6.64.28V296.05h41.19c1.1,1.55.2,3.39.66,5.55H387.79c-.29,5.31-.11,10.23-.15,15.14s0,9.63,0,14.95H418c.87,2.22.41,3.95.47,6Z" style="fill:#6b73a3"/><path d="M222.83.31c11.94-.5,23.87-.29,35.81-.1A31.41,31.41,0,0,1,272,5.32c1.64,1.12,3.3,2.32,3.71,4.49.37,11.66.54,23.32-.09,35-2.12,3.09-4,6.59-8.81,4.94-2.62-2-5.69-1.36-8.62-1.41-5.12-.09-10.24,0-15.36,0-3.57,0-6.15-1-6.61-5-.18-1.53-.77-2.89-2.51-3.29-4.26-2.25-4.25-6.56-4.69-10.43-1-9,2.31-16.52,8.39-22.43-4.66-.58-10.18,1.69-15.27-1.39a9.07,9.07,0,0,1-.23-3.91C222.22,1.32,222.18.59,222.83.31Z" style="fill:#1d632d"/><path d="M221.93,206.78a73.27,73.27,0,0,1,.13-11.85c.53-2.8,2.14-5.11,3.42-7.58,3.45-6.65,5-13.83,5.82-21.21a69.65,69.65,0,0,0-2.25-20.33c-.78-5.46-5.06-9.18-7-14.06a59.38,59.38,0,0,1-.13-9.89c.8-.92,2.31-.44,3.45-2.09a54.53,54.53,0,0,1,3.79-24.84c.89-2.11,1.3-4.57,4-5.38,2.2,2,5.37.6,7.73,2.13.68,2.43-.8,4.33-1.53,6.43-5.09,4.1-4.46,9.58-3.65,15.11-1.19,4.22.59,8.36.33,12.54-.76,4.15-1.38,8.31-.53,12.15,1.23,1.65,2.86,1.58,4.14,2.24a5.24,5.24,0,0,1,2.69,5.4c-.58,1.53-2.06,2-3.27,2.9-5.33,3.73-5.58,10-.54,14.2,1.27,1,2.81,1.83,3.23,3.63-.11,5.72-.87,11.32-3.42,16.53-4.44,1.92-2.68,6.24-3.64,9.51-1.31,3.49-3.85,6.28-5.44,9.61C226.53,203.19,226.13,207.84,221.93,206.78Z" style="fill:#1d632d"/><path d="M233.81,261.81c-4.11,2.35-7.48,5.8-11.8,7.84a46.06,46.06,0,0,1,0-9.68c1.12-2.13,3-3.45,5.11-4.76-1.81.18-3.33,2.12-5.14.52a30.13,30.13,0,0,1,.14-8.69c1.46-1.92,3.89-1.58,5.71-2.49-1.91-.17-3.82,2.34-5.88.2A32.06,32.06,0,0,1,222,237c2.6-2.6,6.26-2.32,9.4-3.46,4.23-1.21,8.5-2.3,12.68-3.66,6.65-1,13.39,0,20.07-1-2.5-1.15-5.36-.19-7.83-1.37-2-2.2.33-2.8,1.48-3.54,2.91-1.85,6.19-3.08,9.14-4.9,2.86-1.25,5.19-3.94,8.77-3.27a99.09,99.09,0,0,1,0,13q-5,4.57-10.07,9.13c-1,.36-1.94-.13-2.87-.44-7.4-2.48-10.07-1.19-12.89,6.23a19.89,19.89,0,0,1-2.21,5c-2.55,3.44-6.44,4.09-9.52,1.58-3.26-2.66-3.42-6.86-.35-10a20.74,20.74,0,0,0,2.81-2.52c-3.3.12-4.59,1.74-5.14,4-.91,3.69-1,7.28,2.41,10,1.44,1.14,3.34,1.48,4.72,2.74.59,2.95-2.17,3.38-3.6,4.81C237.33,260.21,235,259.88,233.81,261.81Z" style="fill:#1d632d"/><path d="M222.11,5.71h18.81a24.3,24.3,0,0,0-8.62,11c-1.77,4.21-3,8.47-1.8,13.22.53,2.17.56,4.52,1.21,6.73A3.41,3.41,0,0,0,234,39.08c2.55,5.83.92,12,1.12,17.94.1,3,.6,5.41,3,7.28,1.58,3,.88,5.9-.3,8.78-.48,1.31-2.12,2-2.06,3.64.69,1.51,2.83,1.49,3.38,3.16a11,11,0,0,1-5.56,8.47c-4.25-.72-5.36-4.73-7.74-7.41-.83-6.16.47-12.25.59-18.38.28-13.4-1.61-26.52-3.63-39.66a5.7,5.7,0,0,0-.67-3.1A86.08,86.08,0,0,1,222.11,5.71Z" style="fill:#798e33"/><path d="M158.87,210.87c2.17-.68,4.3-1.69,6.52-2a17.45,17.45,0,0,1,17.5,10.8c2.93,7.61,1.31,14.34-2.2,21.07-1.28,3.24-3.37,5.15-7.13,4.24-.94-1-.95-2.32-1.23-4.17-.68,1.85-.44,3.55-1.78,4.52a8.78,8.78,0,0,1-4.57.77c-2.72-.36-5.61-.34-7.11-3.31Z" style="fill:#d58e11"/><path d="M86.54,322.86c.29,8.34.27,16.67,0,25-.24.22-.5.56-.78.57-5.76.29-11.09,1.41-14.36,6.88a2.58,2.58,0,0,1-3-1.71c-.25-1.17.6-2.06,1-3.08-1-1-2.17,0-3.17-.34-2.65-1.76-3.91-4.56-5.38-7.2-.35-3.06-.52-6.23-4.27-7.32a2.4,2.4,0,0,1-1.21-1.57c.92-3.18,3-6,3.1-9.43A23.23,23.23,0,0,1,60.88,323c-1.49-.85-3-.69-4.34-1.23-4.71-2.09-6.09-7.53-10.23-10.19a67.37,67.37,0,0,0-9.13-8.66,18.77,18.77,0,0,1-4.33-4.06l0-11c1.29-.63,2.47,0,3.67.35a9.49,9.49,0,0,1,1.65,1,9.72,9.72,0,0,1,1.57,1.22,2.65,2.65,0,0,1,.55,1.23,1.94,1.94,0,0,1-.89,1.77c-.8.56-2,.28-2.67,1.29,1.94,5.52,5.82,2.09,9,1.91A3.35,3.35,0,0,1,47.12,299c0,1.44-2.24,3.68,1.39,3.84,1.68-1-.27-3,1.25-4,1.59-1.28,3-.69,4.29.62a8.54,8.54,0,0,1,2,5c-.65,1.77-3,2.33-3.15,4.47,1.49,3.53,4.92,5.31,7.21,8.25,1-1.22.3-3.12,1.85-3.92a4.32,4.32,0,0,1,3.52-.08c1.9,1.37,4,1.17,6.16.82,3.84,2.22,3.79,2.88-.43,5.74-3.61.41-5.28,2.22-4.48,6a19.87,19.87,0,0,1,.25,5.91c-.3,3.24,1.13,5,4.23,5.46.58.27,1,.8,1.89,1.39.92-1.53,1.46-4.09,4.2-3,3,1.14,3.81-.33,4-3,.29-3.37-.94-7,1.37-10.08A3.1,3.1,0,0,1,86.54,322.86Z" style="fill:#253fa4"/><path d="M237.6,183.11c.87-4.41,1.59-8.85,2.67-13.2.36-1.46.22-2.91.59-4.32,3.56-2,7,.12,10.48.31,6.68,3.1,13.27,6.44,20.77,7.22a6,6,0,0,1,3.51,1.65l.09,16.07c-2.28,2.59-3.75,6.64-8.53,4.72-1.15-2.44-.87-5-.49-7.51.07-1.07,1.65-2,.29-3.22s-2.23-.5-3.22.36c-5.64.62-9.43-2.88-13.29-6.2-1.86,1.37-1.23,3.37-1.72,5a9.29,9.29,0,0,1-.32,1.48c-1.42,4-1.43,8.72-5.69,11.29-5.24.18-6.3-.63-6.48-5.56C236.16,188.46,235.59,185.54,237.6,183.11Z" style="fill:#798e33"/><path d="M499.25,296H505c.93,3.39,1.2,72.36.27,79.68h-5.75C498.74,371.86,498.49,304.49,499.25,296Z" style="fill:#6b73a3"/><path d="M205.83,373.71c-3.17,1.77-5,5.07-8.19,7.33l-8.2-7.6c-5.12-1.95-5.35-1.85-10,4.53-2.67-.05-2.49-3.37-4.85-4.1-2.91,1.71-4.71,4.84-7.77,7.06-2.41-2-5.26-3.59-6.18-7,.74-.88,1.75-.7,2.72-.74,2.56-.1,5.37-.43,5.64-3.51.3-3.44-2.42-4.57-4.27-5.07-3.35.22-2.68,4.39-5.76,3.45-.55-8.43-.36-16.87-.12-25.3,2.94-.91,3.28,1.59,3.94,3.24a33.08,33.08,0,0,0,8.09,11.84c.5.48,1,1,1.47,1.49a15,15,0,0,0,3.84,3c10.13,6.54,20.72,8,32,3.06,1.43-.63,2.88-1.85,4.58-.55,1.26,2.4,1.27,3.41.07,6C210.79,372.51,208,372.35,205.83,373.71Z" style="fill:#f8eb8b"/><path d="M195.77,240.89c1.79-1.52,1.77-3.74,2.3-5.75a46.57,46.57,0,0,0,1.56-17.58c-1-8-6.58-13.2-13-17.16s-13.59-6.48-20.87-8.43c-2.16-.58-4.61,0-6.93,0l-.09-4.18c5.92.23,11.9-.5,17.72,1.49,13.75,4.7,22.38,14.16,26.12,28.07a31.12,31.12,0,0,1,.23,16.64,14.86,14.86,0,0,0-.18,3.48c-.66,2.42-.42,4.89-.47,7.34-.15,6.54-1.36,7.69-7.92,7.49a11.09,11.09,0,0,1-3.39-.5c-2.4-1.09-1.29-2.65-.31-3.89C192.37,245.61,193.68,243,195.77,240.89Z" style="fill:#f8eb8b"/><path d="M238.66,97.7c-.25-2.33,1.49-4,2.06-6,3.28-4,8-3.1,12.26-3.55,1.76.46,1.58,2.73,3.07,3.48,2.07-.89.51-3.11,1.71-4.23,2.27-2.06,5.37-1.66,8-2.69,1.45-.48,1.63-1.36,1-2.68-1.17-2.47-3.09-1.09-4.76-1a18.51,18.51,0,0,1-9.67-1.39c-1.88-3.86,2.29-4.07,3.62-6a8.9,8.9,0,0,1,1.24-.78,11.24,11.24,0,0,1,2-.85c3.47-.66,6.79-1.63,8.9-4.82,2.48-.87,4.94-2.19,7.54-.37l.09,8.07c-1.21,2-1.64,4.08.11,6.07q-.06,3-.1,5.92a156.52,156.52,0,0,0-16.82,10.74C252.13,96.41,245.4,98.29,238.66,97.7Z" style="fill:#798e33"/><path d="M222,131.75c3.85,3.6,7,7.64,7.7,13.08a18.68,18.68,0,0,1-.93,3.87c-2.79,6.92-1.67,13,3.8,18.16-.92,5.46-1.59,11-3.78,16.16-1.8,4.27-3.71,8.39-6.76,11.91-.45-8.41-.31-16.82-.09-25.23.92-2.27,1.3-4.55,0-6.82C221.79,152.5,221.62,142.12,222,131.75Z" style="fill:#8ca23e"/><path d="M267.44,50c3.45-.57,5.24-3.75,8.15-5.17l.18,14c-5.81,2.79-12.27,3.85-18,6.8a5,5,0,0,1-5.11-1.48c-.37-2.33,1.47-2,2.27-2.42-5.62.89-11.64,1-16.92-3a3.81,3.81,0,0,1-1-1.3,6.13,6.13,0,0,1-.46-1.66c.35-6.06,1.52-6.78,9.61-6,5.82,1.68,11.66,2.84,17.62.62A6.21,6.21,0,0,1,267.44,50Z" style="fill:#798e33"/><path d="M170.35,358.89a28.28,28.28,0,0,1-8.8-13.16c-.37-1.24-.67-3-2.68-3-.17-10.67-.36-21.33.18-32,2.07-1.46,4.35-2.57,6.48-3.95,3.31-1.48,6.22-3.79,9.78-4.8,3.56.34,7.27.29,9.61,3.75-2,2.23-4.93,2.67-7.44,3.9-11.08,5.45-15.08,13.38-13,25.66a56.44,56.44,0,0,0,7.16,19.05C171.87,356.06,172.2,357.78,170.35,358.89Z" style="fill:#efd73b"/><path d="M123.62,246h25.94v15.79c-3.88,2-.58,4,0,6,0,1,0,2,0,3a1.3,1.3,0,0,1-1.18.29A8.34,8.34,0,0,1,146,270c-1.56-1.34-3.17-2.64-4-4.58a6.34,6.34,0,0,1,0-4c0-.34.55-.52.37-1-.4-.2-.84,0-1.25-.18a1.93,1.93,0,0,1-.9-.84,4.5,4.5,0,0,1,.1-3.06c-1.63.58-2.68,1.95-4.26,2.23-4.84,0-9.25-2.08-14-2.7a4.87,4.87,0,0,1-1.42-.62c-1.43-1.28-1.51-2.58,0-3.89,2.17-1.46,4.8-.14,7.1-1.1C127.64,247.55,123.74,248.58,123.62,246Z" style="fill:#f7b50d"/><path d="M223.71,20.86a5.57,5.57,0,0,0,0,1C224.88,29,226.3,36,227,43.17c.19,1.91.63,3.87.65,5.83.06,5.49-.2,11,.11,16.46s-1.32,10.82-1.23,16.28c-.46,4.41,0,9.18-4.62,12q0-21.47,0-42.93c.12-8.69,1.44-17.36.45-26.1C222.21,23.5,220.88,21.26,223.71,20.86Z" style="fill:#1d632d"/><path d="M212.81,318.82l-.12,34c-3.17,5.48-9.77,8.61-15.14,7.18-1-2.23.81-2.85,2.18-3.75,5.31-3.49,5.78-4.71,4.28-11.07a14.31,14.31,0,0,1-.27-6.41c2.53-4.32,1.34-8.63-.05-12.94.75-4.06,1.57-8.11,3.54-11.81C211,313.44,211.87,316.15,212.81,318.82Z" style="fill:#efcf01"/><path d="M197.68,359.87c5.24.17,9.12-2.83,13.06-5.66.65-.46,1-1.27,1.95-1.38a7.72,7.72,0,0,1,.05,8c-4.18,6.17-10.94,6.77-17.27,6.95a29.46,29.46,0,0,1-19.1-6c-1.35-1.4-2.84-2.68-3.54-4.59-.33-2.86-1.13-6,3.43-6.1,2,.56,3.28,2.16,4.86,3.32a18.79,18.79,0,0,0,11.45,4.07C194.38,358.51,196.25,358.42,197.68,359.87Z" style="fill:#f8eb8b"/><path d="M46.84,299c-1.15-.3-1.15-1.2-1.11-2.13a2.37,2.37,0,0,1-.66-2.12,5.45,5.45,0,0,1,1.7-3.32c4.47-1.45,8.59,1.76,13.09.75-7.15-1.32-14.38-2.27-21.17-5a2.61,2.61,0,0,1-.69-1.36c0-2,1.15-2.8,3-2.93a9.66,9.66,0,0,1,3.6,1,8.7,8.7,0,0,0,2.67.7c3.1.25,6.09,1.25,9.42,1.31.68-1.86-1.8-3.14-.94-4.93l6,0a6.56,6.56,0,0,1,2.53,4.61A12.14,12.14,0,0,0,64.7,290,5.39,5.39,0,0,0,68,294c-1-1.38-3.27-2.15-2.13-4.49a3.14,3.14,0,0,1,2.12-.42c4.9,2.73,10.3,4.36,15.25,7a2.87,2.87,0,0,1-.36,3.06c-2.41,1.58-5.11,1-7.72,1.07-1.77-.17-3.47-.19-3.83,2.18a2.31,2.31,0,0,1-.93,1c-2.42.72-3.49-.8-4.38-2.63-.73-1.71-1.28-3.66-3.87-3a22,22,0,0,1-4,.28,21.37,21.37,0,0,1-3.3-.24,9.78,9.78,0,0,1-1.19-.28,2.65,2.65,0,0,0-2.17.14,10.82,10.82,0,0,1-2,.9,7.82,7.82,0,0,1-1.55.65A1.34,1.34,0,0,1,46.84,299Z" style="fill:#3658c7"/><path d="M222,93.73c2.61-3,2.36-7,3.72-10.39.24-.6.25-1.26.9-1.6,1.63,0,2.36,1,3.32,2.26s1.22,3.88,3.76,3.85a1.24,1.24,0,0,1,.57.84,1.6,1.6,0,0,1-.38,1c-2.11.85-2.41,2.91-3.13,4.69a53.56,53.56,0,0,0-4.12,23.89c.11,1.75.49,3.59-.28,5.32-1.94.51-2.5-2.33-4.41-1.69Z" style="fill:#8ca23e"/><path d="M221.94,224.77a32.15,32.15,0,0,1,.12-7.78c3.37-2.94,8.09-2.7,11.76-5,4.11-.81,7.79-3.14,12-3.53,5.33.42,10.63,1,15.2,4.34-1.45,2.52-3.58,2.6-5.41,3.15q-8.09,2.4-16.27,4.35a10.7,10.7,0,0,0-5.19,2.73c-2.06,1.38-4.46,1.9-6.76,2.68C225.47,226.12,223.54,226.37,221.94,224.77Z" style="fill:#1d632d"/><path d="M113.51,375.18l-2.06-1.76c-2.83,1.7-4.33,4.91-7.27,6.61-3.57-.77-5.12-3.88-7.31-6.23,1.6-1.47,3.68-2.41,4.9-4.31,4.23-1.63,7-4.86,9.71-8.34,1.36-1.78,2.4-4.16,5.29-4a10.43,10.43,0,0,0,5.73.06c2.47-.49,4.84-.2,6.7,1.81.84,2.52-.38,3.92-2.6,4.77-5.12-.46-7.39,3.87-10.67,6.47-.9.72.39,1.83.24,2.81A2.76,2.76,0,0,1,113.51,375.18Z" style="fill:#790d03"/><path d="M95.88,353.83q0-16,0-31.93c3.57.92,3.74,4.27,4.69,6.9.87,2.44,1.16,5.1,2,7.64,2-1.11,3-3.27,5.14-4a5.1,5.1,0,0,1,4.64,3.08c.7,3.46-2.25,5-3.8,7.32a20.87,20.87,0,0,1-1.32,1.63,76.28,76.28,0,0,1-10,9.49A1.36,1.36,0,0,1,95.88,353.83Z" style="fill:#5d1109"/><path d="M116.66,357.82c-2.59.2-3.22,2.71-4.37,4.26-1.5,2-3.32,3.67-4.86,5.6a5.86,5.86,0,0,1-5.71,2.15l-.49-.31c-.42-.43-.78-.9-1.15-1.36s-.52-.64-.76-1c-1.21-1.75-2.66-3.34-3.43-5.36l0-1.92c1.32-3.05,5.76-1.41,7-4.65,3.43-2.49,8.43-2.33,10.7-6.77,4.43,1.23,6.13,4.4,7.3,7.84C119.75,358.41,117.93,357.12,116.66,357.82Z" style="fill:#430502"/><path d="M158.8,292.91l0-6.14c3.11-2.3,6.41,0,9.6-.41a87.79,87.79,0,0,0,19.84-4.57c3.74-.41,7.48-1.05,11.12.53,1.43,3.36-1.65,3.86-3.37,4.82-8.59,4.76-18,6.37-27.69,7.09C165.07,294.11,161.72,295.07,158.8,292.91Z" style="fill:#f8eb8b"/><path d="M149.58,294.85q0,4,0,7.94c-1.58,3.65-3.47,7.19-4.47,11.08-1.29,1.08-2.31,2.14-2,4.17.37,2.5-1.15,3.61-3.59,3.54-2.85-1.43-5.84-2.61-8.23-4.82-.56-3.16,1-5.39,3.18-7.39,4.81-.72,5.25-4.19,5-8.07a6.22,6.22,0,0,1,2.22-4.42,3.8,3.8,0,0,1,1.26-.62c2,.49,3.37-.65,4.7-1.87A1.69,1.69,0,0,1,149.58,294.85Z" style="fill:#790d03"/><path d="M158.76,263.88v-4.11c2.58-1.88,5.76-1.33,8.6-2.16,4.83-.51,9.35-2.13,13.87-3.77,3.93-.55,7.85-.89,11.75.22,2.08,1.61.48,2.92-.47,4.08a15.7,15.7,0,0,1-6.93,4.5c-3.65.67-7.29,1.38-10.9,2.3-2.68.27-5.36.42-8,.95C163.88,265.86,161.12,265.63,158.76,263.88Z" style="fill:#f8eb8b"/><path d="M212.82,287.83a1.52,1.52,0,0,1,.87,1.58q0,6.91,0,13.83a1.56,1.56,0,0,1-.86,1.6c-3.7.48-6.08-3-9.55-3.19-2.88-1.11-6.14-.94-8.84-2.65a3.8,3.8,0,0,1-.36-3.74c2-2.47,5.7-1.39,7.69-3.81a10.71,10.71,0,0,1,1.79-1.19c1.05-.5,2.18-.84,3.24-1.34C208.76,288.3,210.56,286.77,212.82,287.83Z" style="fill:#f8eb8b"/><path d="M267.69,195.88c3.34-.61,5-3.85,8-5a47.08,47.08,0,0,1,0,10c-2.73,5-8,6.82-12.45,9.74a21.22,21.22,0,0,1-11.52-3.37c-.72-2.28,1.27-2.72,2.53-3.46a57.62,57.62,0,0,1,8-4.51A9.22,9.22,0,0,0,267.69,195.88Z" style="fill:#1d632d"/><path d="M82.66,295.91c-5.72-.23-10.36-3.07-14.93-6.1-1.57-1.08-3.61-1.69-4-4-.62-1.67-2.12-3-2.08-4.93a22,22,0,0,1,6,.07,1.31,1.31,0,0,1,.64.8,3.11,3.11,0,0,1,0,1,1.34,1.34,0,0,0,.38,1.36c.81.13,1.62-.07,2.4.06a4,4,0,0,1,1.06.42,1.57,1.57,0,0,0,1.53,0,10.18,10.18,0,0,0,1.54-1.94c.62-.92,1.72-1.15,2.54-1.79a12.69,12.69,0,0,1,5,.07c1.06,1.16,3,.52,3.93,1.85l0,4a3.92,3.92,0,0,1-1.14.84,7.63,7.63,0,0,1-3.52.18,6.56,6.56,0,0,1-1.31-.38c-.71-.16-1.31-.91-2.15-.38a2.38,2.38,0,0,0,.41,3c2.32,2,5.7,2.37,7.77,4.8l0,2C84.85,298.23,83.7,297.3,82.66,295.91Z" style="fill:#1e2c75"/><path d="M125.78,362.84c2.71,0,3.05-1.81,3-3.92a1.37,1.37,0,0,1,.81-.64,3.36,3.36,0,0,1,1.05,0,3.91,3.91,0,0,0,1.56.12c.55-.18,1.08-.38,1.64-.53,1.71-.25,3.38-.84,5.15-.59,2.25,1.27,1.59,3,.58,4.58-1.22,1.94-2.68,3.72-3.81,5.72a11.88,11.88,0,0,1-.75,1.23c-1.27,1.73-1.65,3.77-2.17,5.79-.29,1.13-.36,2.72-2.29,2.34a7,7,0,0,1-2.86-3.12c-1.41-2.28.24-3.77,1.41-5.38a3.54,3.54,0,0,0,1.22-2.07c0-.35.31-.4.6-.4-.22-.28-.38-.2-.5.25a4.43,4.43,0,0,1-1.19,2.05c-1.78,1.38-1.93,3.87-3.63,5.3l-.12.13a2.46,2.46,0,0,1-2.86.58C118.54,369.59,119.34,366.7,125.78,362.84Z" style="fill:#430502"/><path d="M275.62,174.77c-8.59-.68-16.71-2.79-23.86-7.85,3.86-2.65,8.42-3,12.81-3.84,3.63,1.5,8.09.53,11.14,3.74A25.54,25.54,0,0,1,275.62,174.77Z" style="fill:#1d632d"/><path d="M213.46,184c-1.66-.19-2.5-1.54-3.49-2.6-5.52-5.91-11.3-11.5-19-14.56a2.34,2.34,0,0,1-1.47-1.78c4.08-.2,8.19-1,12.2.47,4.41,2.7,9,5.18,11.19,10.28C214.6,178.47,213.55,181.29,213.46,184Z" style="fill:#f8eb8b"/><path d="M158.76,263.88c2.79-.75,5.32,1,8.05.83,1.62,1.83,1.24,4,.93,6.09-4.5,7.73-4.5,7.73,1.54,14.16a2.26,2.26,0,0,1-.68,2.66c-3.36.7-6.5-1.14-9.82-.85Q158.78,275.33,158.76,263.88Z" style="fill:#efcf01"/><path d="M263.66,209.78c.83-2,3-2.36,4.52-3.6,2.35-2,5-3.58,7.54-5.34a37.46,37.46,0,0,1,0,15q-4,2-8,4c-2.21.36-2.83-1.26-3.51-2.8-.12-1.6,1.59-2.49,1.62-3.76C265.58,211.6,263.89,211.18,263.66,209.78Z" style="fill:#8ca23e"/><path d="M95.85,316.83v-5c1.92-1.76,4.33-1.29,6.6-1.42a10.66,10.66,0,0,0,5.22-1.26,17.89,17.89,0,0,1,8.66-.38c1.56.51,3,1.83,4.79.42a2.89,2.89,0,0,1,2.69.49c.55,2.86-.9,4.83-2.87,6.59a3,3,0,0,1-2.79,0,10.93,10.93,0,0,0-2.21-1.88c.79.71,1.77,1.06,1.92,2.15-1.14,1.67-2.82,1.45-4.49,1.3a6.83,6.83,0,0,1-2.84-1.55c-1,.89.1,1.83-.28,2.65a1.82,1.82,0,0,1-1.39,1.36c-2.18.21-2.72-2.23-4.47-2.83-.64,1.25.63,3.18-1.43,3.81C99.73,321.17,99,317.11,95.85,316.83Z" style="fill:#b33b12"/><path d="M158.8,292.91l9.87,0c1.44,2.35.36,4.53-.41,6.74-1.13,1.11-2.31,1.66-4.21-.22,2.47,2.93,5.1,5.27,1.63,8.42-2.13,1.16-3.52,4-6.63,2.92Z" style="fill:#efcf01"/><path d="M120.74,251.68c-.27.94-1.17,1.88,0,2.81-.29.85-1,1-1.76,1-1-.09-2-.27-2.94-.3-.77,0-1.55,0-2.32,0-4.92.13-9.86-.25-14.75.64a4,4,0,0,1-3.16-1.06c0-1.64,0-3.27,0-4.91,4.94-2.52,10.53-2.36,15.73-3.82h3.29C115.66,249.13,119.53,249,120.74,251.68Z" style="fill:#ef8e0c"/><path d="M70.69,318.84c1.16-1,3.75-.8,2.78-3.47-.78-.86-1.81-.4-2.72-.57a2.38,2.38,0,0,1-.38-3,6,6,0,0,1,6.59-.76c1.15,1,.55,3.49,3.07,3.49,1.49-2.15-1.32-2.63-1.57-4.05.31-1.45,1.45-2,2.67-2.52,1.93-.48,3.81-.62,5.45.85q0,7,0,14l-3.71-.08c-1.16-.6-1.48-2.23-3-2.39s-2.45.81-3.66,1.26a6.88,6.88,0,0,1-4.65-.08C70.48,320.9,69.85,320.09,70.69,318.84Z" style="fill:#3658c7"/><path d="M275.7,114.84a24.23,24.23,0,0,1-.12,8c-.69,2.35-.19,4.68.05,7a24.17,24.17,0,0,1,0,8c-5.7-.57-8.82-4.88-9.16-12.66a10.15,10.15,0,0,1,.4-2.33C268.83,119,269.87,114.29,275.7,114.84Z" style="fill:#1d632d"/><path d="M176.74,360.8a41.07,41.07,0,0,0,13.93,5.26c5.23,1,9.94-.18,14.8-1.3,2.76-.63,4.62-3,7.27-3.93,0,1.33,0,2.67,0,4-3.93,1.41-7.65,3.23-11.81,4.19-9.3,2.14-17.31-.59-25-5.42-.41-.26-.81-.54-1.21-.81C173.9,360.61,174.72,360.1,176.74,360.8Z" style="fill:#efcf01"/><path d="M275.71,166.82c-3.17-1.2-6.7-.66-9.87-2a1.79,1.79,0,0,1-1.23-1.3c-.05-2.3,1.43-3.75,2.88-5.2,1.82-1.3-.14-1.94-.51-2.86-.83-1.89-1.78-3.77-.24-5.76,3.44-1.07,6.27.38,9,2.18Q275.75,159.35,275.71,166.82Z" style="fill:#798e33"/><path d="M233.94,212.93c-3.45,2.85-7.78,3.14-11.88,4.06a59,59,0,0,1-.13-10.21,2.7,2.7,0,0,0,2.72-1.76c.88-1.67,2-3,4-3.43C232.57,204.34,233.37,208.58,233.94,212.93Z" style="fill:#8ca23e"/><path d="M167.72,258.84a19.84,19.84,0,0,1-8.95.93q.06-8.46.1-16.94a16.22,16.22,0,0,0,6.85,2C167.31,249.4,169.61,253.82,167.72,258.84Z" style="fill:#efcf01"/><path d="M259.72,96.72a25.14,25.14,0,0,1,16-9.89,26.86,26.86,0,0,1-.16,8.9,49.29,49.29,0,0,1-8.83,5.48A12.82,12.82,0,0,1,259.72,96.72Z" style="fill:#1d632d"/><path d="M267.52,124.56c.14,6,2.28,10.76,8.14,13.23l0,6.09c-3.57,1.85-5.67-.9-8.1-2.59a14.07,14.07,0,0,0-3.5-4.5c-1.88-3.44-4.37-6.73-2.65-11A7.24,7.24,0,0,1,267.52,124.56Z" style="fill:#798e33"/><path d="M70.23,355c3.28-1,3.69-3.69,3.6-6.82,4.34-.55,8.54-.28,12.72-.29a26.79,26.79,0,0,1,0,6.93c-1.75.83-3.17-.2-4.71-.81.5,1.18,1.44,2.29.72,4-3.19,2.17-6.75,1.17-10.29.59C70.8,357.84,69.78,356.83,70.23,355Z" style="fill:#142058"/><path d="M149.58,294.85l-1.84-.1a15.54,15.54,0,0,0-5,2.09l-.12-.08c-4-2.13-2.22-6.44-3.66-9.54a7.2,7.2,0,0,1-.07-3,17.46,17.46,0,0,0,.59-3.6,17.77,17.77,0,0,1,.41-2.9c.8-2,.15-4.41,1.89-6.1,1.62-.66,3.39-.91,4.95-1.77.82,0,1.74-.16,2,1,.53.57.13,1.53.84,2l.05,3.95c-3.89.45-4.2,3.45-4.56,6.41a23.87,23.87,0,0,1-.45,3.38c-.36,1.34-.68,2.64,1.24,3.07a6,6,0,0,1,3.74,2.18Z" style="fill:#d58e11"/><path d="M267.32,140.44a9,9,0,0,1,3.4,1.75,6.86,6.86,0,0,0,4.91,1.69,28.59,28.59,0,0,1,.13,8c-2.48.25-4.72-.71-6.95-1.53a2.47,2.47,0,0,0-2.68.16,3.5,3.5,0,0,1-.19-1.11,11,11,0,0,0-.12-1.14c-1.07-1.95-3.49-1-4.89-2.26-1.58-1.62-4-3-1.82-5.78C261.88,139.21,264.62,139,267.32,140.44Z" style="fill:#1d632d"/><path d="M257.68,64.84a35.87,35.87,0,0,1,18.09-6.08,27.22,27.22,0,0,1-.17,8c-2.85-.29-5.37,1.52-8.21,1.33C263.91,67.75,260.34,67.65,257.68,64.84Z" style="fill:#1d632d"/><path d="M159,368c1.51-.19,1.5-1.29,1.78-2.49.6-2.56,1.94-3.3,4.29-2.48a9.76,9.76,0,0,1,4.44,3,4.76,4.76,0,0,1-1.79,7.7,9.35,9.35,0,0,1-7.05.12l0,0c-.88-.92-1-2.23-1.66-3.27Z" style="fill:#efcf01"/><path d="M221.94,224.77l5.66-.06c3.56,2.46,4.24,6.1,4.1,10.07-3.22.72-6.32,2-9.66,2.2A88.85,88.85,0,0,1,221.94,224.77Z" style="fill:#8ca23e"/><path d="M275.7,114.84c-3.48,1-5.57,3.47-6.95,6.63-.27.61-.39,1.17-1.09,1.38-1.7-.32-3.53.25-5.12-.8-1.75-3.17.77-5.23,2-7.63a9.27,9.27,0,0,1,.81-1.16,10.36,10.36,0,0,1,1-1l.54-.48c2.78-1.39,4.85-4.92,8.77-3C275.63,110.79,275.67,112.81,275.7,114.84Z" style="fill:#798e33"/><path d="M275.68,9.81c-2.9-2.43-5.78-4.83-9.39-6.28-2-.8-3.8-2-6.08-1.79-1,.08-1.43-.63-1.57-1.53Q266.06.12,273.5.05a19.65,19.65,0,0,1,2.12.24A14.39,14.39,0,0,1,275.68,9.81Z" style="fill:#8ca23e"/><path d="M149.58,321.81c0,1.37,0,2.74,0,4.11-.08,5.17-3.28,8.18-7.32,10.6-3.23,1.51-5.62,4.84-9.73,4.41a3.63,3.63,0,0,1-.84-2.06,5.26,5.26,0,0,1,.29-2.19c3.15-2.9,7.53-4.74,8.33-9.66,1.08-1.08,2.46.36,3.43-.33,1.48-.91,1.6-2.47,2.36-3.64a4.06,4.06,0,0,1,2.23-1.55A1.46,1.46,0,0,1,149.58,321.81Z" style="fill:#b33b12"/><path d="M107.85,332.44c-1.12,2.73-3.8,4-5.48,6.44-2.8-5.75-2.23-12.28-6.5-17v-4.08c2.53-.32,3.17,1.8,4.28,3.32,2.29,3.16,4,6.69,6.77,9.53A2.67,2.67,0,0,1,107.85,332.44Z" style="fill:#9f2a11"/><path d="M120.74,251.68c-1.48-1.77-4.25.26-5.59-2-.79-1.14-.35-2.42-.31-3.68a47.69,47.69,0,0,1,8.78,0c1.55,1.61,4.4-.08,5.62,2.46a5.19,5.19,0,0,1,0,4.26C126.48,251.76,123.6,251.8,120.74,251.68Z" style="fill:#9f2a11"/><path d="M207.71,269.82c2.31-.86,3.13-3.75,5.73-4.21.15,2.76,1.07,5.56-.5,8.21a17.63,17.63,0,0,1-4.86,5c-1.58.81-2.6,3.49-5,1.51a10.22,10.22,0,0,1-.15-6.9C203.93,271.45,205.78,270.58,207.71,269.82Z" style="fill:#f8eb8b"/><path d="M275.6,108.77a7.66,7.66,0,0,0-5.35,2,6.06,6.06,0,0,1-3.86,1.75c-1-3.28,0-6.43.66-9.61,2.31-2.57,4.84-4.53,8.59-3.07A26.59,26.59,0,0,1,275.6,108.77Z" style="fill:#1d632d"/><path d="M149.59,291.82c-2.1-.27-4-1.42-6.2-1-.88-1.59-1.22-2.91.21-4.14,1.91-1.17,2.46-2.42.2-3.82.1-2.26,1.36-4.3,1-6.44,2-1.29,3.38-.35,4.83.35Z" style="fill:#9f2a11"/><path d="M149.61,350.8c0,3,0,6-.05,9a5.4,5.4,0,0,1-3.39,1.38c-3.93,1.3-5.35-1.46-6.77-4.21a4.41,4.41,0,0,1,.88-3.54c2-2.14,4.55-2.94,7.29-3.44A2.82,2.82,0,0,1,149.61,350.8Z" style="fill:#5d1109"/><path d="M207.76,277.89c1.82-1.24,3-3.26,5.18-4.07l-.12,14-6.11,2.1C204.66,285.71,206.07,281.79,207.76,277.89Z" style="fill:#efcf01"/><path d="M95.86,295.85c0-3,0-6,0-9a.94.94,0,0,1,1.24.11A6.43,6.43,0,0,1,98,289.2c.53,1.94,1.66,3.21,3.79,3.13s2.49-1.75,2.78-3.41a5,5,0,0,1,.88-2.25,2.93,2.93,0,0,1,2.61-.53c2.65,1.2,1.6,3.72,2,5.71a2.55,2.55,0,0,1-.19,1.22,6.73,6.73,0,0,0-1.13,2.81,3.09,3.09,0,0,1-1.81,2.56C103.29,297.42,98.81,299.93,95.86,295.85Z" style="fill:#b33b12"/><path d="M72.37,358c3.29-.64,6.71,1,9.87-.52.08-2.65-3.11-3.59-3.54-6.78,3.14,1.21,5.09,3.55,7.87,4.1,0,1.68,0,3.36,0,5-3.33,2.36-7.19,2.41-11,2.52A4.26,4.26,0,0,1,72.37,358Z" style="fill:#1e2c75"/><path d="M179.46,378c.72-5.92,3-7.53,9.72-6.77.76.67.51,1.45.26,2.24-1.27,1.25-2.56,2.49-3.81,3.77s-2.24,2.35-3.3,3.47C180.71,380.27,180.34,378.86,179.46,378Z" style="fill:#efcf01"/><path d="M149.59,367.8v12.7c-3.22-2-4.85-5.35-7.81-7.23a1.39,1.39,0,0,1-.05-1.92C144.2,369.84,146,366.73,149.59,367.8Z" style="fill:#430502"/><path d="M212.81,318.82c-2.17-1.24-2.9-3.91-5.09-5.12a8.1,8.1,0,0,1-4.53-3,8.7,8.7,0,0,1-.87-4.11,1.89,1.89,0,0,1,2.23-1.37c3.61,1.08,6.51,3,8.12,6.58C214.37,314.13,214.14,316.46,212.81,318.82Z" style="fill:#f8eb8b"/><path d="M148.71,321.82c-.28,1.08-1.14,1-2,1a8.89,8.89,0,0,1-2-8.93c-.77-4.74,1.88-8,4.84-11.06l0,9.08C147.62,315,149.82,318.58,148.71,321.82Z" style="fill:#c26d2a"/><path d="M95.83,270.77v-3.88c3.19-3.7,7.08-2.17,10.86-1.46,2,.32,3.91.72,4.36,3.16a4.6,4.6,0,0,1-3.52,3.22C103.63,271.47,99.64,272.16,95.83,270.77Z" style="fill:#790d03"/><path d="M46.76,285.79c-.83,0-1.74.2-2.06-.92-.71-1.17-1.49-2.15-3-1-1.41.05-3.21-.47-3,2-2.29,1.6-4.12.57-5.86-1V281c6-.6,12-.17,17.88.06C51,283.93,48.48,284.54,46.76,285.79Z" style="fill:#253fa4"/><path d="M149.61,350.8l-1.88,0c-2.31-3.14-4.6-6.29-5.81-10.07a3.89,3.89,0,0,1,.51-1.31c2.83-1.27,4.8-3.65,7.17-5.54Q149.6,342.34,149.61,350.8Z" style="fill:#b33b12"/><path d="M96.7,286.8a6.11,6.11,0,0,0-.86.06,23.52,23.52,0,0,1,0-6.16c2.84-2,5.76-1.26,8.51.06,1.15.55,2.14,1.36,3.5,1.32,1.74.57,3,1.56,3.15,3.55-.46,1-1.09,1.62-2.29,1.19l-3,0C102.75,285.9,99.72,286.34,96.7,286.8Z" style="fill:#c26d2a"/><path d="M212.89,175.85c-3.2-2.88-6.2-6-9.84-8.37a2.45,2.45,0,0,1-1.35-1.91h11.19Z" style="fill:#efcf01"/><path d="M95.83,270.77c4-1.3,8-.31,12,.17a6.43,6.43,0,0,1-1.16,6.35,18.69,18.69,0,0,1-10.83.55Z" style="fill:#c26d2a"/><path d="M46.76,285.79c.75-2.06,3-2.83,4-4.74a10.79,10.79,0,0,1,5-.11l4.53,6.82Z" style="fill:#1e2c75"/><path d="M212.67,311.83q-4-3-8-6c-1.21-1.52-2.34-3.06-1-5.08,3.65,0,6.23,2.39,9.12,4.07Q212.76,308.34,212.67,311.83Z" style="fill:#efcf01"/><path d="M32.85,308.84l0-2c1-1.81,2-3.42,4.46-2.13,1.67,1.48,1.72,3.5,1.8,5.51,0,2.64.47,5.34-1.1,7.75a3.56,3.56,0,0,1-4.19.19C32.39,315.19,34,311.88,32.85,308.84Z" style="fill:#253fa4"/><path d="M95.81,277.84c3.38-1.84,7-.84,10.53-.88,2.14,1.52,2.49,3.49,1.47,5.8a4.35,4.35,0,0,0-2.77,1l-.51-2.23c-.67-.73-1.08.41-1.59.27-1.23.11-1.06-1.17-1.75-1.53l-1,1.5c-1.66.39-2.37-2.7-4.28-1.05Z" style="fill:#790d03"/><path d="M106.74,266.65c-3.65-.82-7.31-1.37-10.91.24v-7.11a5,5,0,0,1,4.2-1,6.24,6.24,0,0,1,1.4.35,9.08,9.08,0,0,1,2.68,2.13c.81,1.07,2.42,1,3.15,2.23A2.72,2.72,0,0,1,106.74,266.65Z" style="fill:#c26d2a"/><path d="M141.72,371.85l.06,1.42c-1.53,1.07-2.14,3.06-3.88,3.93a6.67,6.67,0,0,0-4.23-2.32c-1.78-2.67.2-4.79,1-7.08l0,0c1.07-1,2.16-2,3.82-1.47a11.1,11.1,0,0,1,2.82,2.24C142.08,369.6,142.76,370.62,141.72,371.85Z" style="fill:#790d03"/><path d="M95.85,307.87l0-7.09c3.49-1.41,7.07-.22,10.6-.36a1.83,1.83,0,0,1,.71,1.94c-.3,1-1.51.89-2.36,1.86,1.28-.56,2.22-.85,2.65.51a3.35,3.35,0,0,1-1.08,3.71C102.81,309.59,99.25,310.09,95.85,307.87Z" style="fill:#b33b12"/><path d="M149.6,333.86c-1.81,1.09-.3,3-1.32,4.66-1.55.74-3.93-.28-5.53,1.37-1.4-1.09-1.16-2.62-1.1-4.11,1.09-2.46,4.25-2.23,5.55-4.51.6-1.76.5-4,2.36-5.35Q149.57,329.9,149.6,333.86Z" style="fill:#5d1109"/><path d="M75.64,362a42,42,0,0,1,10.92-2.17c0,1.66,0,3.31,0,5l.11-.06c-2.78,2.07-5.69,3-8.93,1l.06,0C76.74,364.72,75.25,363.9,75.64,362Z" style="fill:#142058"/><path d="M107.38,331.62a3.13,3.13,0,0,1-3.4-2.33c-1.19-3.31-4.29-5.35-5.4-8.7a5.16,5.16,0,0,0-2.71-2.77l0-1,1.69-1c2.95.43,2.7,4.12,5.17,5,2.64,1.32,3.4,4.07,4.79,6.33A6.05,6.05,0,0,1,107.38,331.62Z" style="fill:#5d1109"/><path d="M106.67,300.82c-3.61,1.84-7.2.85-10.79,0a15.1,15.1,0,0,1,0-4.93l1.33-.62c1.08.37.09,1.53,1.51,2.38.3.12.47-1.15,1.21-1.32,1.12-.25.7,1.36,1.54,1.36s1.08-.67,1.76-1.53c1.2.59,2.22,2.3,4,1.76A2.32,2.32,0,0,1,106.67,300.82Z" style="fill:#790d03"/><path d="M111.55,246.06a29.63,29.63,0,0,1-15.73,3.82v-3.82Z" style="fill:#9f2a11"/><path d="M95.85,307.87l10.85,0a2.22,2.22,0,0,1,1,2.22c0,1.54-.9,1.81-2.21,1.79-3.22,0-6.45,0-9.67,0Z" style="fill:#5d1109"/><path d="M223.71,20.86c-1.79,1-1.06,2.75-.79,3.95a33.53,33.53,0,0,1,0,14c-.54,2.7-.11,5.57-.26,8.36-.07,1.22.61,2.67-.77,3.63-.11-10.33-.33-20.67.16-31C222.82,19.83,223.54,19.93,223.71,20.86Z" style="fill:#8ca23e"/><path d="M86.59,294.82a26,26,0,0,1-8.88-4.05c-.77-2.71.23-4,3.08-3.95l.87,0c1.08.84,1.36,2,1.54,3.54a4.68,4.68,0,0,1,2.52-3.5l.81,0Z" style="fill:#253fa4"/><path d="M140.72,368.84c-1.51.15-2.13-.58-2-2-.77-3.06.54-4.83,3.55-5a4,4,0,0,0,3.59-2l3.74,0v3A16.56,16.56,0,0,1,140.72,368.84Z" style="fill:#430502"/><path d="M113.51,375.18c.08-1.4,1.92-1.07,2.23-2.25,1.86-1.68,3.58-1.12,5.24.34,1,1.4,1.91,2.81.74,4.56a4.74,4.74,0,0,1-2.65,2.27C116.51,379.35,115.05,377.22,113.51,375.18Z" style="fill:#430502"/><path d="M140.72,368.84a35.65,35.65,0,0,1,8.84-6l0,5c-2.29.05-3.47,2.09-5.29,3-.85.42-1.55,1.11-2.58,1.05C142,370.64,141,369.85,140.72,368.84Z" style="fill:#9f2a11"/><path d="M205.83,373.71c-.16-2.29,1.82-2.38,3.18-2.79a14.19,14.19,0,0,1,3.81-.09V380C209.68,378.19,208.27,375.37,205.83,373.71Z" style="fill:#efcf01"/><path d="M101.72,369.83v2.26c-1.55,1.1-3,2-4.85,1.71-1.45-.47-1.15-1.72-1.15-2.77,0-2.06.1-4.12.16-6.17,2.58-.59,3,2.33,4.84,3h0c.58.54.37,1.48,1,2Z" style="fill:#430502"/><path d="M275.64,99.87a33.08,33.08,0,0,0-8.24,3c-1.15-.2-1.29-.84-.77-1.76,2.39-2.77,5-5.14,8.91-5.38A9.8,9.8,0,0,1,275.64,99.87Z" style="fill:#798e33"/><path d="M102.71,355.81l.77,3.55c-1.68.9-2.06-.85-3.13-1.15l-4.41,1.7-.06-6.08h.83C99.31,352.69,101,354.15,102.71,355.81Z" style="fill:#790d03"/><path d="M86.58,308.82H80.71c-.55.42-1.14.68-1.72.1-.74-.73-.33-1.48,0-2.22a14.79,14.79,0,0,1,4.34-3.64c1-.54,2.07-1.27,3.24-.26Z" style="fill:#142058"/><path d="M134.7,367.8a7.86,7.86,0,0,1-.54,3.28c-.56,1.21-1.31,2.78.58,3.75,1.67,1.44.59,3.31.8,5-.54,1.36-1.41,1-2.16.31-1-1-1.89-2.1-2.82-3.16,1.24-.39,1.06-1.43,1.17-2.4C132,372,132.16,369.37,134.7,367.8Z" style="fill:#9f2a11"/><path d="M86.59,302.81c-1.16-.26-1.85.74-2.8,1-1.55.66-2.05-.45-2.58-1.52-.35-1.53,1-2.41,1.43-3.63l0-2.79c1.25.5,2.45,1.2,3.88.9Z" style="fill:#253fa4"/><path d="M222,255.73c2.89-.38,5.25-2.52,9.22-2.74a40.7,40.7,0,0,1-9.19,7A11,11,0,0,1,222,255.73Z" style="fill:#8ca23e"/><path d="M32.76,327.86l.22-1.08c.6-1.16.67-2.56,1.67-3.54,1.43-1.1,2.63-.67,3.7.58a7.18,7.18,0,0,1,1.26,2.73c-.28,1.56,1,3.84-1.89,4.23l.06.05c-.57-.59-1.53-.42-2.08-1.06l.08.05c-.58-.57-1.53-.42-2.08-1.05l.08.07c-.39-.33-.72-.72-1.08-1.07Z" style="fill:#253fa4"/><path d="M36.71,304.84c-2-.59-2.41,1.71-3.89,2l0-8.05c2.37-.19,2.94,2.48,4.83,3.06C38.75,303.32,38.07,304.19,36.71,304.84Z" style="fill:#142058"/><path d="M149.56,267.82c-3.2-1.06-3.09-3.92-3.81-6.26,1.65-1.44,2.68-.22,3.81.26Z" style="fill:#ef8e0c"/><path d="M34.7,323.82a2.75,2.75,0,0,1-1.72,3c-.57-6-.25-12-.13-17.94,2,2.79.27,6,.93,8.93A6.15,6.15,0,0,1,34.7,323.82Z" style="fill:#142058"/><path d="M75.73,282.83a2.66,2.66,0,0,1-2,3,1.38,1.38,0,0,1-2-.07v-1c-.84-1.72-3.1-.55-4.08-2l0-1.83,6.09,0C74.53,281.43,75.48,281.77,75.73,282.83Z" style="fill:#3658c7"/><path d="M100.65,259.76l-4.82,0v-5h2.89C100,256.22,101.24,257.62,100.65,259.76Z" style="fill:#790d03"/><path d="M275.63,129.83c-2.61-4-2.61-4.11-.05-7A7.35,7.35,0,0,1,275.63,129.83Z" style="fill:#8ca23e"/><path d="M32.85,284.83c2.1-.5,3.78,1.39,5.86,1a3.88,3.88,0,0,1,.11,1,3.52,3.52,0,0,1-2.12,1.9,4.42,4.42,0,0,1-3.82-.86Z" style="fill:#142058"/><path d="M135.54,379.82c-1.64-1.45-.49-3.33-.8-5,.94-.13.86-1.21,1.44-1.66,2,.81,1.39,2.61,1.72,4Z" style="fill:#430502"/><path d="M213.51,241a2.72,2.72,0,0,0-.8-.17c-2-4-2.42-8,0-12,.21-1.07-.4-2.34.77-3.18A87,87,0,0,1,213.51,241Z" style="fill:#f8eb8b"/><path d="M148.71,321.82a11.38,11.38,0,0,0-.62-3.34c-.81-2.42-.6-4.78,1.53-6.61l0,9.94-.44,0Z" style="fill:#790d03"/><path d="M129.74,367.85c.08,2.26-2.15,3.74-2,6l-2.09-.25c.3-2.68.6-5.35,4.08-5.79Z" style="fill:#790d03"/><path d="M213.56,219a3.06,3.06,0,0,0-.73-.15c-2.71-4.63-2.26-9.29-.09-14a2.61,2.61,0,0,0,.77-.18A86.43,86.43,0,0,1,213.56,219Z" style="fill:#f8eb8b"/><path d="M221.93,162.88c2.52,1.79,2.54,3.83,0,6.82Z" style="fill:#1d632d"/><path d="M222,244.75c2.46.78,4.62-1.46,7.52-.6a17.59,17.59,0,0,1-7.35,2.89A3.35,3.35,0,0,1,222,244.75Z" style="fill:#8ca23e"/><path d="M100.72,367.83c-2.44.35-3-2.3-4.84-3v-3A12.29,12.29,0,0,1,100.72,367.83Z" style="fill:#790d03"/><path d="M121.72,377.83c-.33-1.34-.67-2.67-1-4a1.37,1.37,0,0,1,2,0l2.74-.1A11.76,11.76,0,0,1,121.72,377.83Z" style="fill:#790d03"/><path d="M275.8,80.91c-2.9-1.5-2.93-3.29-.11-6.07A20.94,20.94,0,0,1,275.8,80.91Z" style="fill:#1d632d"/><path d="M86.58,282.83c-1.42-.38-3.74,1.13-3.93-1.85.78-.06,1.56-.1,2.33-.17C86.55,280.67,86.86,281.52,86.58,282.83Z" style="fill:#3658c7"/><path d="M845.76,217.89c-.33-1.45.77-2.37,1.33-3.58a2.19,2.19,0,0,1-.16,3.47Z" style="fill:#9fa4c3"/><path d="M75.73,282.83a2.88,2.88,0,0,1-2-1.9,10,10,0,0,1,4,0A2.86,2.86,0,0,1,75.73,282.83Z" style="fill:#253fa4"/><path d="M159,370.62c2.17.27,1.69,1.89,1.66,3.27C158.18,373.77,158.6,372.18,159,370.62Z" style="fill:#f8eb8b"/><path d="M149.57,272.83c-2.4.21-1.1-1.12-.84-2l.82,0Z" style="fill:#ef8e0c"/><path d="M222.83.31c-.08.65-.24,1.25-1,1.49C221.79,1,221.45.13,222.83.31Z" style="fill:#8ca23e"/><path d="M266.89,297.89a2.61,2.61,0,0,1,1.67,1.63c.27.82-1.26,6.09-2,7.39-2.84.32-4.54-2.75-7.34-2.51-.22.34-.1.56.31.74,3.57,1.59,6.45,3.78,5.89,8.22-.45,3.61-3.9,6.31-8.92,6.6-5.29.29-10.7,1-15.81-1.1-2.94-1.22-5.1-3.33-5-6.79.1-2.87,1.15-5.23,4.52-5.58.92.26,1.21,1,1.46,1.84,2.26,7.16,4.86,7.8,10.94,2.43-1.21-3.91-3.56-6.47-8-6.65-4.05-1-7,2-10.58,2.87-2.21-1.12-1.59-3.16-1-4.6.67-1.6.55-3.15.74-4.73a6,6,0,0,1,4.17-1.29c8.12-.07,16.23,0,24.34-.06A6.8,6.8,0,0,1,266.89,297.89Z" style="fill:#798e33"/><path d="M262.72,327.83l3.66.33a5.71,5.71,0,0,1,.38,4c-.95,1.59-2.87,1.59-4,2.71-5.47,5-12.8,6.34-19.17,9.56-.58.32.51.8.07.31-.21-.24-.18-.43.1-.48,6.34-1.05,12.67-1.44,19,.27l4.1.45a1.94,1.94,0,0,1,.51,2.27c-1,1.19-2.48.38-3.6,1-5.59,2.47-11.48,1-17.22,1.18-3.58.14-7.35.88-10.73-1.2-2.69-.6-2-2.47-1.6-4.26l2.8-1.91c1.33-2.71,4.19-3,6.53-4.07a126,126,0,0,1,14-5.78c.59-.33-.54-.71-.06-.26.17.16.08.33-.29.4-6.48,1.18-13,1.92-19.37-.4l-3.25-.35c-.92-1-.6-1.94-.46-2.94,1.4-1.23,3.18-.25,4.71-.77A38.6,38.6,0,0,1,262.72,327.83Z" style="fill:#fefefe"/><path d="M242.88,254.61c-8.71-1.41-11.8-7.53-7.83-15.51l1-1.85c2-.28,3.85-1.55,6.1-1.25,1.14.87.73,2,.47,3.09-4.94,1.72-5.89,2.7-5.88,6.06a5.62,5.62,0,0,0,3.61,5.4,5.25,5.25,0,0,0,6.17-1.91,16.14,16.14,0,0,0,1.82-3.5c.57-1.36.9-2.83,1.48-4.19,2.3-5.43,6.48-7.16,12.08-5.22,1.46.5,2.5,1.59,3.82,2.24,2.69,4.85,3,9.69-.06,14.52a4.57,4.57,0,0,1-4,3.28c-2.14.31-4.55.67-5.48-2-.85-2.46,1-3.39,2.91-4.36,4.35-2.2,4.67-3.63,2.27-8.22-3.37-2.2-5.56-.45-7.4,2.26-1,1.39-1,3.12-1.56,4.67C249.34,254.15,247.39,255.48,242.88,254.61Z" style="fill:#fefefe"/><path d="M234,307c2.91-2.73,5.93-5.16,10.34-4,1.23,3.49.47,4.3-3.66,3.91-3.09.83-4.19,3-4,6,.19,2.67,2,4.23,4.29,4.93a33.65,33.65,0,0,0,19.1.06,5.86,5.86,0,0,0,4.43-5.41c.26-2.41-1.62-4.65-4.6-5.75-1.37-.51-2.78-.9-4.08-1.32a4.78,4.78,0,0,1,0-3c4.5-.31,7.78,1.64,10.68,4.5q3.56,7.83-2.94,13.48a5.51,5.51,0,0,1-3.83,2.89,37.94,37.94,0,0,1-19-.08,3.28,3.28,0,0,1-2.77-2.5C233.19,317.11,233.16,312.17,234,307Z" style="fill:#fefefe"/><path d="M242.88,254.61c4.23-.48,6.79-3,8.26-6.81,3.41-2.85,6.25-6.46,10.64-8,2.84,1.72,3.32,4.29,2.45,7.23s-2.14,3.72-6.9,4.32c-1,.91-.83,2-.29,3.32a9.94,9.94,0,0,0,8.58-2.17v8.65c-8-1.08-16-.69-24-1a3.57,3.57,0,0,1-3-1.49C239.54,256.76,241.79,256.3,242.88,254.61Z" style="fill:#798e33"/><path d="M238.64,258.65c5.73.07,11.46.27,17.18.15a16.69,16.69,0,0,1,9.81,2.34c3,4.88,2.9,9.75-.09,14.59-3.1,3.95-8.09,4.77-14.8,2.44H235c-1.44-1.27-1.21-2.06-.87-3.16,4.38-1.13,9.1.41,13.58-.88,2.38-1.05,4.92-.52,7.39-.75,3.32-.31,7-.33,7.66-4.73.44-3-2.46-5-7.69-5.3-4.48-.29-9-.06-13.47-.12a9.43,9.43,0,0,1-3.89-.71c-1.21-.81-2.65-.35-3.94-.71l.12-2.37C235.4,258.33,237.14,259.17,238.64,258.65Z" style="fill:#fefefe"/><path d="M237.75,262.52c6.73-.93,13.49-.47,20.23-.26,2.13.07,4.58.56,5.9,3,2.25,4.14-.19,8.83-5.32,9.24-3.56.28-7.24.57-10.81-.35-.53-1.57,1.19-2.65.84-4.64-2.37-3.49-6.26-4.67-10.68-4.9Z" style="fill:#798e33"/><path d="M250.74,278.17c2.3-.08,4.6-.26,6.9-.21a12.71,12.71,0,0,0,7.9-2.23c2.28,1.25.7,3.4,1.18,5.07-2.28,1.95-1.37,4.62-1.51,7-.17,3,.14,6.49-3.42,7.56s-7.69,2.46-11.05-1.07V291c.23-1.13,1.15-1.65,1.75-2.41,1.74-2.24,1.89-3.33-.17-5.48A5.67,5.67,0,0,1,250.74,278.17Z" style="fill:#798e33"/><path d="M235.74,348.15c9.32-.4,18.63-.37,27.95,0-.43,2,.83,3.65,1,5.52a2.55,2.55,0,0,1-1.58,1.14,127.74,127.74,0,0,1-24.81,0,2.55,2.55,0,0,1-1.58-1.14C237.19,351.7,235.28,350.14,235.74,348.15Z" style="fill:#798e33"/><path d="M238,320.7c2.23,1.49,4.88,1.73,7.38,1.93,6.21.49,12.45.67,18.27-2.24a15.11,15.11,0,0,1-.88,7.44l-24,0c.18-1.31-.8-2-1.4-3C236.42,323.37,236,321.79,238,320.7Z" style="fill:#798e33"/><path d="M250.74,294.31c4.24.35,8.49.71,13-.51V281.92c1-1.39,2.08-1,3-1.12.64,2.32-.41,4.79.69,7.06a12.31,12.31,0,0,1,0,8.94l-.51,1.09c-11-.09-22.08.4-33.11-.24.06-.81.13-1.62.21-2.66C239.59,294,245.23,295.25,250.74,294.31Z" style="fill:#fefefe"/><path d="M237.72,331.87h22.52c-8.29,3.89-15.66,7.3-23.3,10.11-2-1.08-1.22-2.59-.75-4.15C236.79,335.87,237.9,334,237.72,331.87Z" style="fill:#798e33"/><path d="M262.68,344.49H241.29c1.65-1.85,4-2.28,6.11-3.18,5.09-2.2,10-4.79,15.32-6.48C261.65,338.05,261.15,341.27,262.68,344.49Z" style="fill:#798e33"/><path d="M236.73,353.69h28c1.8.17,2.83.85,1.72,3.1H234.5a2,2,0,0,1-.54-2.25C234.7,353.51,235.85,354.05,236.73,353.69Z" style="fill:#fefefe"/><path d="M267.4,296.8a20.13,20.13,0,0,1,0-8.94l2.12.2a40.73,40.73,0,0,1,0,8.55Z" style="fill:#798e33"/><path d="M777.66,211.49c-1.35-9-5-16.75-12.92-21.92-5.22-3.42-11.09-3.9-17.16-3.79A25,25,0,0,0,729.06,194c-5.36,5.7-7.71,12.79-8.15,20.3a229.05,229.05,0,0,0,0,25.94c.48,8.92,4,16.7,11.17,22.43,5.47,4.36,11.85,5.31,18.67,5.28,13.4-.05,22.69-8.1,26-20.38,1.77-6.62,2.06-13.38,1.78-20.67A66.7,66.7,0,0,0,777.66,211.49Zm-16.94,33.66c-2.08,7.85-9,11.73-15.89,8.6-4.7-2.12-6.46-6.45-7.13-11.22a115.65,115.65,0,0,1,.09-31.7c.59-4.4,2.29-8.54,6.48-10.62,6.3-3.14,12.82-.75,15.4,6a26.41,26.41,0,0,1,2,9.64c0,3.82,0,7.65,0,11.47C761.59,233.28,762.28,239.27,760.72,245.15Z" style="fill:#6b73a3"/><path d="M642.53,222.07a53.93,53.93,0,0,0-1.86-15.19c-5.12-18.14-18.55-23.65-34.75-20.34-11.67,2.38-17.46,11-20.21,22.13-1.51,6.09-.74,12.23-.87,18.34,0,4.82-.08,9.65,0,14.47a22.12,22.12,0,0,0,.94,4.85c5.41,20.38,23.66,25.66,40.24,19.19,9.91-3.87,14-12.61,15.64-22.6C642.86,236,642.48,229,642.53,222.07Zm-17.87,23.38c-2.06,7.56-8.77,11.22-15.65,8.35-4.63-1.93-6.53-6.07-7.22-10.58a113.32,113.32,0,0,1,0-32.69c.58-4.2,2.3-8.18,6.28-10.24,6.07-3.13,12.72-1.18,15.51,5.74a25.69,25.69,0,0,1,2.1,9.62c0,3.83,0,7.65,0,11.48C625.62,233.25,626.31,239.42,624.66,245.45Z" style="fill:#6b73a3"/><path d="M393.82,187.12H378.49l-24.71,79.5h17.38c1.44-5.24,2.82-10.29,4.25-15.5H397c1.41,5.28,2.76,10.33,4.16,15.52h17.59C410.31,239.82,402.05,213.42,393.82,187.12Zm-15,49.46c2.42-9.11,4.71-17.79,7-26.47,2.58,8.81,5.7,17.26,7.11,26.47Z" style="fill:#6b73a3"/><path d="M37.72,330.78c1.7-1.4.72-3.27.87-4.94.18-2.87,1.82-2.91,3.94-2,1.48.84,2.81,1.95,4.36,2.68.56.22,1.12.46,1.66.72a6.57,6.57,0,0,1,1.42,1c.43.38.85.77,1.3,1.12.63.44,1.31.8,1.95,1.23,1.06.94,2.27,1.77,2.28,3.41a1.09,1.09,0,0,0,.81,1c3.1,1.79,4.25,4.88,5.36,8A45.66,45.66,0,0,0,66.54,350c1.73.21,2.09,1.41,2.09,2.88a4,4,0,0,0,1.6,2.07,5.31,5.31,0,0,0,2.14,3,15.43,15.43,0,0,0,3.27,4c.19,1.56,2.62,1.84,2.17,3.77-2.61,0-3.59-2.13-4.8-3.76-5.33-7.2-10.79-14.32-15.7-21.8a31,31,0,0,0-10.52-10.29c-1.83-1.06-3.55-2.32-5.49-3.6-1.34,2.54-.15,5-1.08,7.18C39,333,37.18,333,37.72,330.78Z" style="fill:#fefefe"/><path d="M77.75,365.74a22.71,22.71,0,0,0,8.93-1C83.65,368.61,80.84,368.92,77.75,365.74Z" style="fill:#fefefe"/><path d="M35.7,329.77c1-.25,1.81-.13,2.08,1.06C36.62,331.4,35.72,331.45,35.7,329.77Z" style="fill:#fefefe"/><path d="M33.7,328.77c1.07-.41,1.9-.32,2.08,1.05C34.63,330.37,33.85,330.19,33.7,328.77Z" style="fill:#fefefe"/><path d="M32.7,327.77c.73,0,1.27.16,1.08,1.07C32.89,329,32.43,328.75,32.7,327.77Z" style="fill:#fefefe"/><path d="M193.77,254.86l-13,0a5.53,5.53,0,0,1-2.35.65c-2.69.15-5.88,1.76-7.84-.9-2.18-2.94-1.92-6.45-.15-9.73.15-2.22.3-4.44.43-6.48.94-.76,1.67-.67,3,0v6.36c1,1.12,1.17,2.74,2.07,3.82a8,8,0,0,0,6.23.32c2.1-2.51.38-5.88,2.42-8.16.2-.87.09-1.87,1.46-2,1.57-.14,1.79.89,2,2,1.91,3.11.38,6.77,1.6,10h10.81V238.17l2.19-.71c1.12.42,1,1.46,1.21,2.37,2.27,3.78,1.18,7.9,1.2,11.92-.29,3.81-2.86,4.54-6,4.47C197.18,256.19,195.24,256.42,193.77,254.86Z" style="fill:#484642"/><path d="M170.75,179.82a14.07,14.07,0,0,1,5.78-6.93c3.18-2,5.92-1.24,7.78,2.06.55,1,1,2.06,1.54,3.22-1.38,3.3-2.24,7.44-6.66,7.5A8.37,8.37,0,0,1,170.75,179.82Z" style="fill:#d58e11"/><path d="M202.72,185.85c3.64,1.59,2.65,5.18,4.12,7.65-1.43,2.85-2.47,6.35-6.22,6.2-4.23-.16-6.43-3.37-7.94-7.12C195.4,189.4,198,186.24,202.72,185.85Z" style="fill:#d58e11"/><path d="M198.82,254.82h4c1.27-1,.74-2.11,1-3a3.43,3.43,0,0,1,4.87.06c3.62,3.73,3.57,7.83,1.54,11.89-1.5,1.53-3.08.89-4.5,1.08-3.32,1.47-5.23-.77-6.89-2.92S196.81,257.2,198.82,254.82Z" style="fill:#d58e11"/><path d="M198.82,254.82V260c1.62,2.39,3.69,4.41,6.92,4.83.36,1.77.61,3.59,2,5-.8,1.61-1.88,2.88-3.82,3.09-3-7.14-8.41-10.27-16-10a2.64,2.64,0,0,1-2.13-1.13c2.82-2.14,6.26-3.57,8-6.93Z" style="fill:#efd73b"/><path d="M212.74,204.84l.09,14c-2.23.42-3.73-.62-5-2.58C207.05,211.5,208.09,207.43,212.74,204.84Z" style="fill:#d58e11"/><path d="M208.7,251.89l-4.87-.06q0-6,0-12c3.8.88,4,4.29,4.77,7.13C209.05,248.5,208.71,250.24,208.7,251.89Z" style="fill:#efd73b"/><path d="M212.71,228.87v12c-3.29-2.75-4.39-6.55-3-10A2.74,2.74,0,0,1,212.71,228.87Z" style="fill:#d58e11"/><path d="M467.43,341.54c6.8-3.21,10.94-8.11,12.71-15a30.09,30.09,0,0,0,.32-12.87c-1.51-8.33-5.8-14.61-14.6-17.06-3.31-.92-6.56-.79-9.86-.82-6.61-.06-13.22,0-20,0v79.87c2.32.11,4.4.53,6.68-.44V343.09h17.94c5.4,11,10.7,21.85,16.12,32.9,2.43-.48,4.68.4,7-.7C478.3,364,473,353,467.43,341.54Zm-8.22-4.85c-5.29.3-10.61.06-16.25.06V301.8c6.77.38,13.21-.59,19.65.86a13.93,13.93,0,0,1,11.14,12.93c.32,4.1.57,8.23-1.26,12.24C469.84,333.62,465.23,336.34,459.21,336.69Z" style="fill:#6b73a3"/><path d="M612.47,295.9h-6.23c-8.23,26.65-17,52.83-25.13,80,2.68-.17,4.6.33,6.7-.39,3-7,4.09-14.76,7.12-21.36h29.16L631,375.83c2.47-.15,4.58.49,6.82-.62C629.15,348.64,621.18,322,612.47,295.9Zm-15.93,51.65c4.22-13.9,8.34-27.45,12.85-42.27,4.44,14.59,8.58,28.24,12.84,42.27Z" style="fill:#6b73a3"/><path d="M343.63,296H337.2c-8.16,26.63-17,52.79-25,79.54a15.14,15.14,0,0,0,6.58,0c2.93-7,4.14-14.55,7.1-21.37H355.1c2.36,7.37,4.65,14.53,7,21.72,1.42,0,2.42.08,3.39,0s2.35.54,3.25-.93Q356.21,335.53,343.63,296ZM327.52,347.6l12.87-42.3,12.87,42.3Z" style="fill:#6b73a3"/><path d="M184.56,240.81v9.89H173.84v-5.87c3-.1,4.59-2.67,6.85-4.05Z" style="fill:#efd73b"/><path d="M189.66,250.8l-1.64-.17a43,43,0,0,1,0-9.82l7.71.08c.15,3-2.08,4.85-3.66,7C191.36,248.9,190.1,249.51,189.66,250.8Z" style="fill:#efd73b"/><path d="M257.68,64.84c2.65.66,5.28,1.35,7.93,2,.82.19,1.56.36,1.78,1.3,0,1.11.3,2.3-1.05,3.39L258.64,73a3.28,3.28,0,0,1-1.5.75l-.1-.2c-4.19,2.64-9.11,2.35-14,3.38,3.28-.31,6.32-1.06,8.69,1.65,3.47.46,6.82,2,10.44,1.28,5.26.68,5.74,1.31,4.6,6l-9,2.1c-1.11,1.3-2.35,2-4,.91a62.68,62.68,0,0,0-13,2.79c-2.19-.11-4.28.66-6.13,1.09-1.06-1.19-.57-2.2-.75-3.1l-.09-.26c2.58-3.47,6.75-2.57,10.18-3.7,3.61-.25,7.09-1.19,11.38-1.92-3.31-.66-5.83-1.26-8.42-1.57-2.82-.51-5.83-.38-8.17-2.45-1.27-1.19-3.15-.59-4.55-1.46-.87-2.53-.28-4.15,2.53-4.52.31-.28.62-.55.92-.84a5.08,5.08,0,0,1,1.67-.89,7.14,7.14,0,0,1,1.28-.28,19.86,19.86,0,0,0,6.48-1.14c.43-.18.87-.33,1.32-.47a9.66,9.66,0,0,1,1.38-.36c2.94-.1,5.8-1,8.78-.64.66-.1-.16-.85.05-.22-2.27,0-4.54.33-6.79-.24a53.52,53.52,0,0,0-6.64-1.48c-2.63-.32-5.3-.51-7.43-2.39-1.07-.81-2.42-.93-3.77-1.29V39.08a5.14,5.14,0,0,1,3.16.1c.16,2.34.31,4.74.5,7.59h28.51c1.58,1.18,1.09,2.28,1.32,3.19-.66,1-1.83.54-2.71.9-6,1.74-12,1.1-18,0h-9a16,16,0,0,0,0,5.56c-.14.51-.45,1,0,1.52h-.1a.73.73,0,0,1,.58.74c0,.92.69,1.12,1.41,1.31,4.05,2.45,9.23.89,13.14,3.77C254.32,64.24,255.87,65.15,257.68,64.84Z" style="fill:#fefefe"/><path d="M242.69,15.91c7.53-10.74,23.4-7.82,28.71,2.16,5.87,11,1.13,22.59-11.51,26.46-6.42,2-16.85-1.72-19.17-8.67,3.16-2.42,6.71-1.36,10.17-1.16a15.3,15.3,0,0,0,8.35.36c1.95-.66,4.16,0,6-1.1.74-1.09-.18-1.85-.37-2.74-.47-3.77-1.08-7.52-1.44-11.28,1.07-2.05-.58-1.69-1.6-1.71-4.78-.07-9.57.1-14.35-.1C245.67,18.06,243.35,18.61,242.69,15.91Z" style="fill:#798e33"/><path d="M251.71,35.85h-11l-6.15-.34c-1-1-.63-2-.6-3,1.4-1.28,3.19-.29,4.71-.82,1.92-1.54,4.32-1,6.46-1.55,2.35-2.26,1-5,.93-7.52-1.85-2.54-5.32-.62-7.33-2.67l-4.21-.25c-1.06-1.07-.5-2-.35-2.92l8.51-.86c1,1.27,2.47.64,3.71.65,6,.06,11.92,0,17.89,0,1.7,0,3.52-.15,3.09,2.51-1,1.29-2.49.48-3.68.92-2.16,1.79-4.77,1.16-7.19,1.19-3,0-4.82,1-4.41,4.39,0,1,0,2,.14,3,.88,2.64,3.15,1.68,4.93,1.86,2.84.27,5.85-.67,8.47,1.17,1.6,1.29,1.6,1.29,1.33,3.8-2.34.74-4.83-.08-7.22.41A14.37,14.37,0,0,1,251.71,35.85Z" style="fill:#fefefe"/><path d="M238.74,19.94h8.43a1.63,1.63,0,0,1,.56,1.85c-1.88,3.15-.45,6.64-1,9.92l-8,0c-.83-2.94-1.6-5.84-.08-8.86C239,22,238.71,20.91,238.74,19.94Z" style="fill:#798e33"/><path d="M262.69,121.81c1.53.5,2.82-.44,4.4-.79.2.63.39,1.23.57,1.83l-.14,1.71c-1.68,1.56-3.85,1.11-5.84,1.42a8.19,8.19,0,0,1-3.58,1.5c-4,1-4.64,3.55-3.33,7,3.15,2.12,7.12-.17,10,2.37l2.19.35c.92,1.1.39,2.21.4,3.28-2.83.86-5.76,0-8.61.49a27.88,27.88,0,0,1-19,0l-5.66-.31c-.26-5-.66-9.91.74-14.73,2.22-4.75,6.8-6.41,11.87-4.43,1.51.59,2.57,2.18,4.43,1.9A16.37,16.37,0,0,1,262.69,121.81Z" style="fill:#fefefe"/><path d="M261.72,145.8l4.77.36c.87,1,1.22,1.81.23,2.71-.25.36-.75.22-1,.53,0,.33.6.36.37.79l.07.32c.64,1.8,1.65,3.47,1.8,5.42a2.12,2.12,0,0,1-.19,2.85q-1.56,2.37-3.13,4.74c-4,2.07-8.47,2.64-12.85,3.4l-10.9-1.33c-.56-.32-1.09-.7-1.67-1-4.4-1.95-5.93-5.47-5.6-10.06.32-4.41,2.78-6.89,6.92-7.95a11.75,11.75,0,0,0,1.39-.54c1.85-1.38,2.21.1,2.67,1.38.19,2.26-1.42,3.17-3.06,4.06-1.84,1-3.4,2.23-3.08,4.62s2.09,3.64,4.29,4.3a29,29,0,0,0,14.27.46c6.42-1.64,7.5-3.67,4.38-8.2a9.44,9.44,0,0,0-2.39-1.11c-1.44-.31-2.88-.73-4,.27-1.6,1.68-.45,4.51-2.87,5.58-2.76.35-3.37-1.5-3.72-3.62.25-3.2-1.32-7,2.77-9a11.67,11.67,0,0,1,3.63-.4A11,11,0,0,1,261.72,145.8Z" style="fill:#fefefe"/><path d="M266.63,101.11c0,.68,0,1.38.77,1.76a16.72,16.72,0,0,1-1,9.68l.24.16a2.38,2.38,0,0,1-1,1.05l0-.06c-3.95,4.82-9.71,4.13-15,5-3.48-.19-7-.28-10.32-1.48-2.32-.84-4.76-1.74-5.37-4.65a21.91,21.91,0,0,1-1.15-3.27c-1-4.91.5-8.85,4.86-11.55a40.38,40.38,0,0,1,21.06-1A18.37,18.37,0,0,1,266.63,101.11Z" style="fill:#fefefe"/><path d="M267.69,195.88c-.43,1,0,2.23-1,3.16-1.15.82-2.66.23-4,.65-5.08,2.33-10.32,1.83-15.58.82-2.34,0-4.59.88-6.95.69-7.24-.34-8.27-1.67-6.52-8.41.08-1.64.12-3.28.24-4.91s-.4-3.27.37-4.79c1.17-.69,2.26-.27,3.36,0v12.13c1.89,1.16,4,.51,6.13.48,2.43-1.2,2.69-3.45,3.16-5.8.35-1.75-.26-3.7,1-5.26l-.12-.3c3.37-1.89,4.48-1.29,5.25,2.56.51,2.52-1,5.76,2.5,7.25a10.39,10.39,0,0,0,5.8-.14c1.31-1,.89-2.45,1-3.73,0-1.94,0-3.88,1.38-5.46.13-.78.25-1.56.4-2.47,2.32-.76,3.34.18,3.52,2.4a1.31,1.31,0,0,1,0,2.22Z" style="fill:#fefefe"/><path d="M233.63,192.79q.18,2.91.37,5.84c2.08,1.69,4.52.5,6.67,1,1,1.77-.54,2.5-1.47,3.47a6.49,6.49,0,0,1-1.24.61,4,4,0,0,0-1.58.95c2.72,2.73,7.51,1.2,9.74,4.61-2.63.92-5.34,1.65-7.85,2.81a11.61,11.61,0,0,1-4.33.81c-1.28-.26-1-1.39-1.34-2.23-1.26-3.07-2.65-6.08-4-9.11C229,197.91,231.78,195.62,233.63,192.79Z" style="fill:#798e33"/><path d="M235,112.52A17.38,17.38,0,0,0,246.7,117a22.05,22.05,0,0,1,3.88.67c2.45,2.46,1.28,5,.2,7.57-.21.38-.49.46-.8.19-5.62-4.88-10.22-4.73-15.17.53-.31-1.92-.16-3.83-.76-5.81A8.53,8.53,0,0,1,235,112.52Z" style="fill:#798e33"/><path d="M243.9,147.93c-.18-1.14-.52-2.11-2-1.85-.11-2-1.36-3.46-2.17-5.13l19,0c-.28,2.42,2.43,3,3,4.87a29.8,29.8,0,0,1-7,0c-1-1.27-2-1.28-3,0-1,.2-1.85.44-1.86,1.75,0,2.1-.13,4.2-.2,6.29C245.83,153.73,244.76,150.94,243.9,147.93Z" style="fill:#798e33"/><path d="M232.6,166.86c-4.24-1.91-7.44-6.8-6.81-11.14a75.54,75.54,0,0,1,2.44-9.75c.14-.48,1-.77,1.5-1.14,1.82,1.34,1.4,3.61,1.79,5.34A52.81,52.81,0,0,1,232.6,166.86Z" style="fill:#798e33"/><path d="M231.7,234.78q-2.05-5-4.1-10.07a10.23,10.23,0,0,1,6-1.94c8.21-2.13,16.46-4.1,24.63-6.36,2.09-.57,4.17-1.26,6.32-.24.56,1.67,2.16,2.43,3.19,3.69-2.38,2.32-5.68,3-8.41,4.72-1.2.75-2.81.84-3.62,2.23-2.69,2.3-5.94,1.2-8.95,1.42s-6.21-.23-9.78.37c2.29,1.54,5.19.17,6.74,2.35C240,233,235.71,233.51,231.7,234.78Z" style="fill:#798e33"/><path d="M243.73,231h-9c-1.27-1.35-1-2.42-.37-4.14H266.3c1.34,1.3,1.21,2.38.47,4.14Z" style="fill:#fefefe"/><path d="M232.17,252.58l-.26-.28c.1-.07.21-.21.3-.2s.18.17.26.26Z" style="fill:#8ca23e"/><path d="M244.71,86.77l-11,2.62-.1-1.54c1.7-2.7,3.85-5.11,5.07-8.1,3.11-.35,6,.94,9,1.35C248.73,84.06,246.7,85.4,244.71,86.77Z" style="fill:#1d632d"/><path d="M237.72,73.65l-1,.12c.13-3,1.63-5.86,1-9,2.78-.34,5.31,1,8,1.23.84,4.76-4,4.61-6,6.91a1.7,1.7,0,0,1-.63.14C238.53,73,238.14,73.38,237.72,73.65Z" style="fill:#1d632d"/><path d="M172.34,234c-3,1.33-5.62,1-8.19.78a4.73,4.73,0,0,1-4.39-4.53,13.41,13.41,0,0,1,.6-6.83c4-.84,8-1.42,11.9,1.56A24.38,24.38,0,0,1,172.34,234Z" style="fill:#f8eb8b"/><path d="M170.4,244.91v9.64l10.34.34c-4,2.63-8.46,3.36-13,3.95-.13-1.3.23-2.61-.42-3.89-1.6-3.18-1.8-6.6-1.58-10.08Z" style="fill:#efd73b"/><path d="M55.5,334l-3-2.7c-.52-.89-.17-2-.68-2.92-1.12-.85-2.14-.41-3.15.27l-1.88-1a7.53,7.53,0,0,1-.27-3.34c-1.43-.23-2.41,1.3-3.76.58-1.64-.74-3.24-1.27-4.15,1-1-.33-.86-1.2-.92-2-1.18-2-1.66-4,0-6.05l0-8c3.25-2.15,6.1-.49,9,1a15.05,15.05,0,0,1,6,6,11,11,0,0,0,4,4.11,4.58,4.58,0,0,1,2.12,3.92C60.46,328.89,57.91,331.4,55.5,334Z" style="fill:#142058"/><path d="M70.69,318.84c.09.78,0,1.67,1,2,2.18,2.47,1.32,5.48,1.45,8.3-.47,2.89.13,5.95-1.39,8.67H66.17c-.89-2.61-.36-5.08-.45-7.49s.21-4.92-1-6.89c.32-1.76,1.51-2.85,1.14-4.63Z" style="fill:#142058"/><path d="M76.67,320.8c.08-.8.08-1.81,1.08-1.92a36.22,36.22,0,0,1,4.15,0c1.22,1.31.63,2.71.93,3.94V337c-1.73,1.37-3.43.79-5,.78-1,0-1.1-1-1.19-1.86-2.35-3.36-1.06-7.16-1.3-10.78A6,6,0,0,1,76.67,320.8Z" style="fill:#142058"/><path d="M36.7,288.7c-.11-1.55.78-2,2.12-1.9,2.71-.3,5.18.67,7.69,1.42a38.32,38.32,0,0,0,13.12,1.62,2.66,2.66,0,0,1,2.84,1.58c.6,1.46,0,2.56-1.73,3.36a119.45,119.45,0,0,0-14-2.95,3.26,3.26,0,0,1-2.86.8,7.26,7.26,0,0,1-4.11-1.83h0c-.6-.6-1.57-.4-2.14-1A1.2,1.2,0,0,1,36.7,288.7Z" style="fill:#1e2c75"/><path d="M65.68,313.8l-4,.05c-2.64-3-7.17-2.3-10-5,.13-2.56,1.56-3.82,4-4a2.42,2.42,0,0,1,2-.7,7.32,7.32,0,0,1,2.61,1.05c3,1.77,7,.18,9.79,2.73a3,3,0,0,1,.11,2.76A15.59,15.59,0,0,1,65.68,313.8Z" style="fill:#3658c7"/><path d="M76.69,324.8l-.06,11.11-1.4.13c-1.37,1.61.68,4.41-2,5.46-1.65-.7-1.49-2.21-1.47-3.65-.65-2.65.07-5.31,0-8C73.65,328.49,72.27,323.79,76.69,324.8Z" style="fill:#1e2c75"/><path d="M51.73,308.81a47,47,0,0,1,9.83,2.45l.13,2.59v6.48c-3.94-4.05-7.29-7.49-10.63-10.94,0,0,.11-.3.22-.39A1.39,1.39,0,0,1,51.73,308.81Z" style="fill:#1e2c75"/><path d="M45.77,294.82l0,2c-2,1-3.55,2.89-6.08,3-2.56-1.5-3.9-4.11-6.06-6.41,2.2-.91,4.13-.52,6-.52,1.59-.24,3,.58,4.48.84A2.82,2.82,0,0,1,45.77,294.82Z" style="fill:#142058"/><path d="M46.72,310.82c-3.1.71-5.89-1.43-9-1-.12-1.72.13-3.52-1-5,.28-1,1.3-1.76,1-3C40.9,304.65,44.53,307,46.72,310.82Z" style="fill:#1e2c75"/><path d="M48.87,298c.82,0,1.67,0,2.05-1,.85-1.14,1.82-.77,2.8-.24l0,.06a2,2,0,0,1,.49,2.47c-.15.17-.31.33-.47.5-1.17-.32-2.13-1.72-3.75-.69-.31,1.92,1.37,3.48,1.16,5.68-2.41-.21-4.63-1.39-6.92-1.14-1.56-3.29,2.35-2.85,2.64-4.7a8.68,8.68,0,0,1,.89-.14A2.16,2.16,0,0,1,48.87,298Z" style="fill:#142058"/><path d="M57.68,304.79H55.77c-.65-1.66-2.08-3-2.06-4.94h0c1.8-1.27,2.69.07,3.61,1.19a3,3,0,0,1,.45-4h4.92c2.14,1,1.11,2.36.24,3.53A15.62,15.62,0,0,1,57.68,304.79Z" style="fill:#142058"/><path d="M75.77,341.91c1.8,0,3.23-2.06,6.11-.13.47.44-.41,2-.18,3.14-1.29,1.47-2.75,1.08-5-1.06C76,343.41,75.23,343,75.77,341.91Z" style="fill:#142058"/><path d="M65.68,313.8c0-2.8,1.85-3.13,4-3,.9-.25,1.22.08,1,1l0,3c-.94,1.88-2.62.91-4,.91C65.75,315.72,65.77,314.61,65.68,313.8Z" style="fill:#1e2c75"/><path d="M66,341.25a7.06,7.06,0,0,1,4.15-.26c1,1.3.62,2.73.43,4.09a2.38,2.38,0,0,1-2.74.67C65.46,345.16,65.5,343.37,66,341.25Z" style="fill:#142058"/><path d="M61.67,343a23.56,23.56,0,0,1-5.36-8c2.61-.9,3.72,1.26,5.36,2.71Z" style="fill:#1e2c75"/><path d="M58.78,324.85c-1.49-.88-1.87-2.37-2.12-3.92,2.27-.36,4.39,1.44,7.26-.5C62.9,323.91,61.38,325.09,58.78,324.85Z" style="fill:#1e2c75"/><path d="M68.63,352.91A6.65,6.65,0,0,1,66.54,350c1.23-2.27,3.18-.61,5-1.48C70.78,350.67,70.46,352.33,68.63,352.91Z" style="fill:#142058"/><path d="M43.74,294.86a5.32,5.32,0,0,1-4.12-1.92l.13-2.14c1.4.16,3-.72,4.09.94A2.46,2.46,0,0,1,43.74,294.86Z" style="fill:#3658c7"/><path d="M75.77,341.91l.92,1.95c-1.47.43-1.12,2.89-3.12,2.77-1.53-.67-.41-2-.89-2.83A6.4,6.4,0,0,1,75.77,341.91Z" style="fill:#1e2c75"/><path d="M37.6,289.78c.85.05,1.86-.24,2.14,1C38.83,290.86,37.93,290.92,37.6,289.78Z" style="fill:#3658c7"/><path d="M255.72,195.71c-1.27.06-2.56.45-4.09-.36V184.53c-1.5-1.27-2.68-.75-3.86-.17-.5-2.85,1-5.38,1.3-8.74,4.08,4.89,8.64,8.24,14.6,9.22a19.28,19.28,0,0,1,0,6C262,194.05,258.8,194.78,255.72,195.71Z" style="fill:#1d632d"/><path d="M247.89,184.66v10.62c-1.29,1-2.75.5-4.16.44C245.18,192.05,246,188.15,247.89,184.66Z" style="fill:#1d632d"/><path d="M267.54,187c0-.74,0-1.48,0-2.22l1.8.24A2.37,2.37,0,0,1,267.54,187Z" style="fill:#1d632d"/><path d="M176.68,351.71h-2.54c-.77,2.05-.41,4.11-.28,6.16.58,2.05-.23,2.68-2.19,2.13l-1.32-1.11a11.58,11.58,0,0,0,0-5.14,24.51,24.51,0,0,1-1-11.18c.35-1.7.87-3.52,3-3.21,3.26.48,2.19,4.12,4.22,6.2C181,347,186,346,191,346.24c3.14.15,6.31-.18,9.45.25,1.8.24,3.88.55,3.74,3.05-.12,2.13-2,2.6-3.65,2.63C192.55,352.32,184.59,353.09,176.68,351.71Z" style="fill:#484642"/><path d="M171.67,360c1.4,0,2.22-.64,2.19-2.13a6.84,6.84,0,0,1,2.88,2.93c-1.39-.07-2.17.48-2,2A6.16,6.16,0,0,1,171.67,360Z" style="fill:#efd73b"/><path d="M251.71,78.61c-3.14-.8-6.5-.63-10.35-2.37,5.74-1.06,10.58-2.57,15.68-2.66C256.14,76.18,253.12,76.55,251.71,78.61Z" style="fill:#1d632d"/><path d="M253.71,88.87c1.33-.3,2.54-1.17,4-.91.16.28.31.56.48.84a3.26,3.26,0,0,1-.35,4.39,2.19,2.19,0,0,1-2.67.41c-1.61-.78-1.6-2.26-1.51-3.76C253.68,89.52,253.69,89.19,253.71,88.87Z" style="fill:#1d632d"/><path d="M266.75,85.86a5.54,5.54,0,0,0,.15-3.41c-1.21-2.12-3.76-.73-4.75-2.56,1.3,0,2.26-1.46,4.06-.81,1.58.87,2.23,2.66,2.5,4.65C268.91,85.2,268.15,85.84,266.75,85.86Z" style="fill:#1d632d"/><path d="M257.14,73.78c.26-.73.85-.8,1.5-.75C258.37,73.73,257.78,73.8,257.14,73.78Z" style="fill:#1d632d"/><path d="M252.68,63.75a80,80,0,0,1-14.92-3.07,1.79,1.79,0,0,1-.29-2.18,5.58,5.58,0,0,1,.08-.57c.16,0,.37-.13.48-.06,5.64,3.21,11.79,3.46,18.24,2.83C255.56,62.67,253.37,62.28,252.68,63.75Z" style="fill:#1d632d"/><path d="M246.7,50.85c6-.28,12-.29,18,0-.34,1.18-1.59,1.42-2.36,1.52C257.05,53.08,251.69,53.65,246.7,50.85Z" style="fill:#1d632d"/><path d="M237.65,57.93c-1.38-.48-.67-1,0-1.52Z" style="fill:#1d632d"/><path d="M202.66,306.67c1.78,1,.82,2.68,1,4.06-3.56,1.76-6.55-.74-9.81-1.29-.46-.11-.93-.23-1.4-.33a18.65,18.65,0,0,1-2.07-.57c-1.9-.89-4.26-.89-5.6-2.87a42.83,42.83,0,0,0-10-2.93c-2.44.2-4.75.18-5.19-3-.14-3.12,1.94-4.52,4.46-5.21,8.34-2.28,16.55-5,24.89-7.27,4.13-1.12,5.1-.15,4.73,3.73l-1,.75c-2.37,2-5.61,1.54-8.16,3l-.08,4.15C194.39,304.43,199.62,304.4,202.66,306.67Z" style="fill:#484642"/><path d="M184.81,305.67a16.22,16.22,0,0,1,6.27,1.87c-.09,2.73-2.4,2.24-4,2.67-5,1.35-9.91,2.72-13.39,7a6.21,6.21,0,0,1-1.56,1.59c-3.92,3.11-3.67,7.49-3.39,11.75s1.62,8.1,1.65,12.26a55.29,55.29,0,0,1,0,11c-3.81-4.11-5.17-9.39-6.54-14.55a34,34,0,0,1-1.15-10.72c.54-8.63,3.75-15.25,12.24-18.86C178.2,308.23,181.21,306.23,184.81,305.67Z" style="fill:#f8eb8b"/><path d="M170.38,299.83a2.35,2.35,0,0,0,2.36,2,2.34,2.34,0,0,1,2.11.91,35.21,35.21,0,0,1-9.17,5.09c1.43-3.17.56-5.59-3.64-7.61l5.62-.48A1.9,1.9,0,0,1,170.38,299.83Z" style="fill:#f8eb8b"/><path d="M142.62,271.8c-1.38.7-.69,2-.88,3s.49,2.34-.91,3c-2-3-2.44-6.82-4.86-9.63-.95-4.81-5.46-4.14-8.6-5.56-2.41-.84-5.26-.54-7.11-2.79-.91-2.07-.67-3.8,1.43-5,4.26-.14,8.1,1.71,12.16,2.52.94.19,1.9.33,2.84.49a3.73,3.73,0,0,1,4.05,1.91h0c.38.68,1.43.3,1.73,1.1l.23,4.92C143.93,267.84,144.44,269.84,142.62,271.8Z" style="fill:#9f2a11"/><path d="M121.69,254.87c-1.09,1.5-1,3.23-1,4.95-1.53,1.46-3.24,1.31-5,.58-2.19-1.82-2.77-3.86-.86-6.24l1.87-.15c.66.42,1.5.28,2.15.71l1.93-.23A4.35,4.35,0,0,0,121.69,254.87Z" style="fill:#790d03"/><path d="M142.62,271.8c0-2,.07-4,.1-6a10.13,10.13,0,0,1,4,4l-1.33,2.52Z" style="fill:#ef8e0c"/><path d="M140.74,259.79c-1.22-.92-3.06-.5-4.05-1.91.71-2.33,3.34-2.13,4.61-4C142.4,256.27,140,257.83,140.74,259.79Z" style="fill:#ef8e0c"/><path d="M142.49,260.9c-.79,0-1.49-.2-1.73-1.1,1.57.36,2-1.34,3-2.05C144.52,260,144.52,260,142.49,260.9Z" style="fill:#ef8e0c"/><path d="M170.39,342.76c-2.45-4.38-2.7-9.39-3.37-14.13-.43-3,1.19-6.33,2.1-9.45.36-1.22,1.6-1.6,2.9-1.32,1.06,4.49-.72,9.11.64,13.94,3,1.24,6.44,0,9.49,1.22a8.05,8.05,0,0,1,3.52,4.1c2.07,4.3,5.31,4.71,9.59,3.84,3.17-.64,5.85-3.43,9.42-2.17a17.69,17.69,0,0,0,2.06,10.12c-1,4.82-3.18,8.09-8,9-1.06.2-1,1.17-1,2-1.79,0-3.59,0-5.39,0a18.77,18.77,0,0,1-15.61-8.17c1.4-1.38,3.15-.62,4.72-.64,7.25-.09,14.51,0,21.42,0,1.09-1,.87-1.79.68-3h-29c-1.55-2.73-.11-5.53-1.16-8.09C170.42,338.82,170.78,341.22,170.39,342.76Z" style="fill:#efd73b"/><path d="M204.68,338.79c-3.13.8-5.77,2.74-9.09,3.34a64.57,64.57,0,0,1-7,.73c-3.33-1.91-4.1-5.67-5.92-8.69,2-2.54,4.84-1.61,7.37-1.75,2.81-.15,5.63-.05,8.55,0a19.49,19.49,0,0,0-3.64-.12c-3.51-.13-7.21.23-7.63-4.9-.42-5.3,1.53-8.17,6.74-9.3a7.07,7.07,0,0,1,2.47-.11,16.53,16.53,0,0,1,8.09,7.9c.17,2.42,2.56,3.93,2.27,6.78C206.69,335,206.34,337.07,204.68,338.79Z" style="fill:#f8eb8b"/><path d="M204.67,325.87l-7-6.56c.28-2.18,2.93-1,3.76-2.75-4.91.85-10.1-.28-14.4,3.89-4-4.95-9.31-3.27-14.29-3.34-.31-1.82.7-2.64,2.21-3.37,4.71-2.26,9.14-5.27,14.72-5,.69,0,1.11-.63,1.42-1.23l1.62.38a.79.79,0,0,0,1,.17l10,2.64c2,0,3.14,1.36,4,3C207.58,318,205.58,321.79,204.67,325.87Z" style="fill:#efd73b"/><path d="M70.7,311.82a1.08,1.08,0,0,0-1-1l-.06-2.95c.38-1.6-.38-3.45,1-4.85l.18-1.33c3.06-.24,3.8,3.91,6.88,3.63A3.05,3.05,0,0,1,79.84,307l-.94,1.66,1.81.21c-.08,1.24-1.89.74-2,2-.35.89-.89,1.44-1.94,1.07C74.77,310.85,72.72,312.46,70.7,311.82Z" style="fill:#253fa4"/><path d="M70.67,303c0,1.54-.19,3.11,1,4.57l-2,.28c-2.44.25-4.78-1.23-7.34-.34a2.6,2.6,0,0,1-2.54-1.72c1.49-2.91,3.05-5.75,6.89-6C67.53,301.52,68.2,303.42,70.67,303Z" style="fill:#1e2c75"/><path d="M82.64,298.7c.63.25,1,.57.43,1.25s-.92,1.16-1.38,1.74c-.82,1.89-1.61,3.82-4.27,3.32-2.2-1.47-5.49-2.29-3.71-6.16Z" style="fill:#1e2c75"/><path d="M66.68,299.87c-2.75,1.47-4.17,4.47-6.89,6l-2.11-1c.83-3,4.35-3.54,5.63-6.42L62.69,297c.17-.73.7-1.38,1.35-1C65.42,296.89,66.88,297.85,66.68,299.87Z" style="fill:#253fa4"/><path d="M73.71,298.85c.07,1.23-.35,2.54,1.41,3.21a4.61,4.61,0,0,1,2.6,2.77.6.6,0,0,1,.2.65c-.09.2-.18.3-.26.3l-2.11,1.07c-2.1-1.38-2.44-4.15-4.7-5.14l-1.09-2C70.93,298.2,72.42,299,73.71,298.85Z" style="fill:#142058"/><path d="M65.6,289.85c1.14,2,2.88,3.36,5.39,4.85H65.21c-.47-1.56-1-3.21-1.46-4.85A1.21,1.21,0,0,1,65.6,289.85Z" style="fill:#1e2c75"/><path d="M57.77,297v4.38c-1.75-.06-2.4-2.08-4.06-1.55l0-3Z" style="fill:#1e2c75"/><path d="M65.6,289.85H63.75c-.32-1.34-2.34-2.7,0-4a10.92,10.92,0,0,1,4,4Z" style="fill:#253fa4"/><path d="M41.71,283.83c-.09-1.47.61-2.46,2-1.86,1,.4,2.23,1.41,1,2.9C43.54,285,42.69,284.21,41.71,283.83Z" style="fill:#142058"/><path d="M43.74,294.86l.1-3.12,2.88.09c-.24,1,.6,2.38-.95,3Z" style="fill:#253fa4"/><path d="M53.72,296.81l-2.8.24C51.67,294.79,52.67,295.5,53.72,296.81Z" style="fill:#253fa4"/><path d="M48.87,298a1.32,1.32,0,0,1-1.14.83C47.85,298.22,48.2,297.89,48.87,298Z" style="fill:#253fa4"/><path d="M264.56,216.17l-27,7c-1.36.36-2.77,1.41-3.91-.4l.54-2.5,26.65-6.93c-4.94-2.24-9.87-2.92-14.68-4l-11.43-3c-1.05-.8-.92-1.89-.72-3.08,1.55-.83,3-.09,4.39,0a17.34,17.34,0,0,1,13.35,3.58c3.93,1.19,7.81,2.58,12,3l3.53,1.67C268.1,214,267.08,215.5,264.56,216.17Z" style="fill:#fefefe"/><path d="M102.71,355.81c-2-.67-3.73-2.12-6-2,2.82-3.89,6.6-6.8,10.08-10a7.25,7.25,0,0,1,2.27,3.3c0,1.87-1.53,2.85-2.52,4.15,3.32-.23,2.53-4.41,5.14-5.34a42.69,42.69,0,0,1,13.63-.12c1.58.53,2.08,1.44.9,2.94,2.18,0,3.31-2,5.14-2.62,3.26-.3,6.09.56,7,4,.95,3.76-2,5.12-4.76,6.39a8.88,8.88,0,0,0-3.69,2.35l-1.06.08a14.28,14.28,0,0,0-10.43.57c-.82-.41-.69-1.6-1.7-1.67.67-1.76,2.42-.52,3.75-1.43-2-2.45-3.37-5.43-6.06-7.29-2.22.5-1.12,3-2.89,4.24C108.48,352.86,106,355.8,102.71,355.81Z" style="fill:#9f2a11"/><path d="M122.75,373.83h-2c-1.51-1.16-3.24-1.05-5-.9-.17-1.78-2.58-.43-3-2.57a20.91,20.91,0,0,0,8.54-7.52h4.46c-1.42,2.51-4.52,3.85-4.91,7.21C121.46,371.23,122.11,372.53,122.75,373.83Z" style="fill:#9f2a11"/><path d="M107.38,331.62l-1.06-4.83c-.86-2.93-.72-5.48,2.52-6.91a.93.93,0,0,0,1-.87c.69-1.47,2-1.86,3.45-2s3.3.33,4.62-1h0l2.81-.17a8.28,8.28,0,0,1,5.69-1.27,9.11,9.11,0,0,1,5.35,2.17c2.88.87,5.64,2,7.75,4.24,2.16,1.54,3,3.39,1.4,5.84,0,5.52-3.63,8-8.15,9.81-2.08,2.21-5,2-7.59,2.49-1.07.07-2.14.06-3.21,0a14.45,14.45,0,0,1-3.14-.41c-2.36-.87-5.2-.7-6.87-3.11l-4.06-3.17A1.3,1.3,0,0,0,107.38,331.62Z" style="fill:#fefefe"/><path d="M129.85,358.84v-2.37c1.38-1.18,3-.85,4.39-1.26,2-.58,3.37-1.64,3.41-3.73,0-2.27-1.23-3.66-3.47-4.22a6.17,6.17,0,0,0-3.43-.14c-1.35.69-2.71,1-4.08.05a111.24,111.24,0,0,0-16,0,1.71,1.71,0,0,1-1.88,0c-2.24-.24-1.91-2-2-3.44l.91-.8c2.78-2.52,6.17-1.41,9.35-1.58,1.14,0,2.28-.08,3.42,0s2.22,0,3.32,0a33,33,0,0,1,8.17.92c2.57.1,5.1.37,7.29,1.91,3.09,2.76,3.53,5.93,1.52,9.5-.43,1-.85,2-1.28,2.95a.87.87,0,0,1-1,.92,17.44,17.44,0,0,1-5.83,1.55c-.34,0-.68.06-1,.08l-1-.11A1.71,1.71,0,0,0,129.85,358.84Z" style="fill:#fefefe"/><path d="M117.66,343a47.37,47.37,0,0,1-10,0,2.67,2.67,0,0,1,1.38-2.82,5.53,5.53,0,0,0,2.83-4.57l6.88,1.73C119.84,339.51,119.07,341.32,117.66,343Z" style="fill:#9f2a11"/><path d="M101.71,369.83c-1.19-.24-1-1.17-1-2C101.86,368.09,101.75,369,101.71,369.83Z" style="fill:#790d03"/><path d="M185.74,261.79c2.14.06,4.3,0,6.43.2,7.26.62,10.62,3.79,11.72,10.92a37.45,37.45,0,0,0,0,7.85c.34,4.46-2.27,2.27-4.11,1.82l-12.05.15c-5.21,1.46-10.46,2.32-15.85,1-4.32-3.22-2.13-7.83-2.55-11.88.42-3.64,1.8-6.61,5.53-7.95C178.27,262.14,182,262.08,185.74,261.79Z" style="fill:#484642"/><path d="M199.77,282.58c.6-.85,1.34-.5,2-.22,1.61.65,1.8-.52,2.06-1.6,1.62-.52,2.15-2.51,3.88-2.87.62,4.1-1,8-1,12-.59,1.5-2,.69-3,1-.13-.95.24-2-.76-3.38-10.74,2.79-21.54,6.06-32.13,9.43l-.47,2.83-2.72-.09a18.75,18.75,0,0,1,1-6.85c9.94-.88,19.65-2.56,28.43-7.73C198.24,284.49,199.56,284.15,199.77,282.58Z" style="fill:#efd73b"/><path d="M171.71,282.79l16-.06c-3.58,2.6-7.9,3.14-12,4-2.3.45-4.73.62-7.1.93,0-.94.07-1.88.11-2.82C169,283.12,170.72,283.48,171.71,282.79Z" style="fill:#efd73b"/><path d="M107.73,310.05c-1-.43-.77-1.44-1-2.22l0-4c-.32-.21-.43-.42-.33-.64s.21-.33.32-.33v-2l.5-2.94c.75-.74.57-1.73.69-2.64a2.9,2.9,0,0,1,2-2.33l0,.08a4.53,4.53,0,0,1,3.6-2.22,14.3,14.3,0,0,1,2.17-.14,15.18,15.18,0,0,1,2.13.09,6.6,6.6,0,0,1,2,.5c2,1.82,3.76,1.21,5.48-.43,2.33-1.28,4.84-1.33,7.39-1.15a10.13,10.13,0,0,1,5.67,2.64c2.73,2.43,2.24,5.66,2.16,8.78-.33,2.74.23,5.54-.56,8.31-1.53,1.23-3.45.2-5.1.77a12.45,12.45,0,0,1-4.73,1c-.54,0-1.09,0-1.63,0-1.64,0-3.31.07-4.72-1a4.79,4.79,0,0,0-3,0,2.82,2.82,0,0,1-3,.05A58.94,58.94,0,0,0,107.73,310.05Z" style="fill:#fefefe"/><path d="M140.87,326.8c0-2.07-.9-3.9-1.4-5.84A3.1,3.1,0,0,0,142.6,319c.15-1.46-1.76-1.85-1.77-3.3.61-2,2.26-2,3.93-1.89,1.19,2.86,1.44,5.92,2,8.93-.14,2.81-.83,5.27-3.38,6.14C141.57,328.62,141.89,327.1,140.87,326.8Z" style="fill:#5d1109"/><path d="M140.43,301.06c-.74-2.79-1-5.74-2.75-8.2-.86-2.54-1.27-4.92,2.06-6,1.34,2.48,1.61,5.24,1.95,8,.09.79,0,1.61.92,1.95C142.1,298.31,140.55,299.32,140.43,301.06Z" style="fill:#c26d2a"/><path d="M129.7,310.06a12.92,12.92,0,0,1,5.07.08c-1.17,2.13-2.84,4-3.05,6.58-1.75.34-3.3-.52-4.94-.84-1-1.71.37-2.82,1-4.1A9.56,9.56,0,0,1,129.7,310.06Z" style="fill:#c26d2a"/><path d="M142.73,296.84c2.37-3.33,2.37-3.33,5-2.09a7.62,7.62,0,0,0-1.26,3.72C144.39,299.2,144.67,295.87,142.73,296.84Z" style="fill:#9f2a11"/><path d="M174.85,264c-1.86,2-3.75,4-4.26,6.85-1.1,1.09-2.31,1.77-3.89,1l.11-7.12C169.37,263.21,172.15,264,174.85,264Z" style="fill:#efd73b"/><path d="M202.66,306.67c-3,0-5.63-1.38-8.39-2.54-.25-1.86-1-3.58.24-5.26,3.21,0,6.35.22,9.2,1.9-.07,1.77,1.48,3.23,1,5.08C203.92,305.9,203.05,305.69,202.66,306.67Z" style="fill:#efd73b"/><path d="M194.59,294.72c.06-.68.22-1.45.95-1.56,2.42-.38,4.68-1.63,7.21-1.46C200.93,295.13,197.75,294.9,194.59,294.72Z" style="fill:#efd73b"/><path d="M251.71,206.8a102.67,102.67,0,0,1-13.35-3.58,5.76,5.76,0,0,1,.41-.44c2.35-1.76,5.38-1.9,7.86-3.33l16.05.24c-2.28,2.24-5.22,3.45-7.89,5.09C253.75,205.42,252.3,205.47,251.71,206.8Z" style="fill:#798e33"/><path d="M67.68,282.8c1.61.51,3-.84,4.37-.82,1.17,1.31-.3,1.92-.29,2.81-1-.12-1.79.58-2.68.87-1.52.5-2.5-.06-2.33-1.86a10.93,10.93,0,0,0,.94-1Z" style="fill:#253fa4"/><path d="M80.79,286.82c-1.65.84-3.08,1.84-3.08,3.95C75.64,289,77,287,77,285.05,79,284.56,80.13,285.2,80.79,286.82Z" style="fill:#3658c7"/><path d="M85.72,286.83l-2.39,4.68a6.26,6.26,0,0,1-1.67-4.72Z" style="fill:#3658c7"/><path d="M71.75,285.8l2,.07C73,287.15,72.36,287.37,71.75,285.8Z" style="fill:#253fa4"/><path d="M67.69,282.81a1,1,0,0,1-.94,1C66.81,283.23,67.07,282.84,67.69,282.81Z" style="fill:#3658c7"/><path d="M138.52,357.67a1,1,0,0,1,1-.92c1.69.83,1.84,3.11,3.17,3.62,1.6.81,2.19-.52,3.16-.55l-.25,2.36c-1.6,1.31-3.51.17-5.28.92-.5,1.15-1,2.43-1.61,3.71-1.48-.24-2.5,1.32-4,1,.54-2.71,2.33-4.62,4.12-6.54C140,360,140.48,358.73,138.52,357.67Z" style="fill:#9f2a11"/><path d="M130.75,365.86c0,.82.1,1.72-1,2l-.05,0c0-.83-.12-1.73,1-2Z" style="fill:#790d03"/><path d="M130.64,359.19h1.1l0,.61A1,1,0,0,1,130.64,359.19Z" style="fill:#9f2a11"/><path d="M131.76,359.8c0-.2,0-.41,0-.61l.95,0A.83.83,0,0,1,131.76,359.8Z" style="fill:#790d03"/><path d="M130.69,365.8l.48-.75c.68.69-.08.64-.42.81Z" style="fill:#790d03"/><path d="M166.7,271.83a6.38,6.38,0,0,1,3.89-1l.06,9.47c0,1-.13,2,1.06,2.52-.55,1.35-2,1.35-3,2a13.21,13.21,0,0,1-5.8-4.28c-1.75-2-1.74-3.5.15-5.5C164.16,273.86,165.12,272.47,166.7,271.83Z" style="fill:#d58e11"/><path d="M108.84,319.88a14.81,14.81,0,0,0-2.52,6.91c-2.08-1.44-2.32-4-3.61-5.93,2.32-1.9-.72-2.94-.54-4.82a2,2,0,0,1,1.56-1.12C106.47,315.55,106.32,319.08,108.84,319.88Z" style="fill:#790d03"/><path d="M129,311.89l-2.19,4-6.1-.06,3-5.64a14.58,14.58,0,0,1,5.06-.06A1.54,1.54,0,0,1,129,311.89Z" style="fill:#5d1109"/><path d="M113.26,317a6.35,6.35,0,0,1-3.45,2c-.7-1.42-1.41-2.83-2.08-4.18,1-1.46,1.91-1.17,3-.47S111.62,316.89,113.26,317Z" style="fill:#5d1109"/><path d="M117.88,316c-2.22.21-3.81-.73-5.06-3l1.45-1.32c2.14.84,3.44,2.07,3.6,4.3Z" style="fill:#5d1109"/><path d="M117.76,310.19a5.23,5.23,0,0,1,3-.05c0,1.14-.39,1.84-1.72,1.73C117.85,311.78,117.81,311,117.76,310.19Z" style="fill:#5d1109"/><path d="M114.82,254.16c-.19,2-.43,3.92.93,5.62-2.85,2.58-6.28-.06-9.29,1.06a7,7,0,0,1-4.78-1l-1-.11c-.79-1.6-2.57-2.82-1.92-5,1.41-1.15,3.08-.95,4.72-.94C107.24,253.85,111,253.6,114.82,254.16Z" style="fill:#9f2a11"/><path d="M118.84,254.72c-.83.11-1.71.35-2.15-.71C117.57,253.78,118.38,253.72,118.84,254.72Z" style="fill:#9f2a11"/><path d="M76.69,324.8c-.79.11-1.8,0-1.88,1.1-.16,2.07-1.49,3.12-3.12,4,0-3,0-6,0-9l5-.08C76.68,322.14,76.68,323.47,76.69,324.8Z" style="fill:#253fa4"/><path d="M76.79,311.88l1.94-1.07c2.51.45,2.51.45,3.84,3.21a6.44,6.44,0,0,1-2.76,2.84l-3-1.59Z" style="fill:#1e2c75"/><path d="M267.74,158.78c.07-.95.13-1.9.19-2.85H270a1.93,1.93,0,0,1,.37,2.42C269.63,159.15,268.64,158.68,267.74,158.78Z" style="fill:#1d632d"/><path d="M264.73,136.81a68.28,68.28,0,0,1-11.36,0c-1-1.25-.64-2.28-.69-3.22-.28-6.38.69-7.44,7.05-7.73a16.15,16.15,0,0,1,1.95.15C261.34,130,263.87,133.15,264.73,136.81Z" style="fill:#1d632d"/><path d="M136.56,268c3.23,2.51,4.33,5.93,4.27,9.87l-.22,2.63a17,17,0,0,1-1.5,3.89c-1.18,2.14-3.33,2.73-5.42,3.41a6.51,6.51,0,0,1-3.07-.1,3,3,0,0,1-1.3-.86,3.67,3.67,0,0,1-.36-3,3.48,3.48,0,0,1,2.9-2.1,7.54,7.54,0,0,0,2.58-.81c2.31-1.68,2.38-3.88,1.46-6.3a4.63,4.63,0,0,0-3.76-2.48c-3.07-.34-4.63,1.33-5.41,4-.86,2-1.59,4-2.47,5.91a12.74,12.74,0,0,1-5,4.6,14.78,14.78,0,0,1-5.62.4c-1.07-.24-2.25-.32-2.55-1.71l-3.25-2.59-1.47-5.8c.58-2,.27-4.19,1.46-6l3-2.34c1-1.74,2.53-1.93,4.29-1.4,1.67,1,1.82,2.44,1.34,4.11-.71,1.45-2.23,1.53-3.48,2.07a3.24,3.24,0,0,0-1.9,2,5.39,5.39,0,0,0,0,2.19,5.21,5.21,0,0,0,1.28,2.42,5.52,5.52,0,0,0,2.56,1.09,3.81,3.81,0,0,0,3.21-.95,8,8,0,0,0,2.09-3.67,39.59,39.59,0,0,0,1.74-4.46,9.53,9.53,0,0,1,8.09-6.39C132.51,265.49,135,265.56,136.56,268Z" style="fill:#fefefe"/><path d="M133.71,286.78c1.74-.9,3.74-1.37,5.07-3a.71.71,0,0,1,1.12,0c-.06,1-.11,2-.16,3.06-1.5,1.73-1.22,4.06-2.06,6-1.64-.73-3.08-1.91-4.93-2.17C131.39,289,132.76,287.93,133.71,286.78Z" style="fill:#790d03"/><path d="M143.8,282.87c1.57,0,3.19-.35,4.66.33.3,2.71-2.8.68-2.8,2.29-1.33,1,.88,2.29-.63,3.12-1.54.19-1.17-1.1-1.43-1.92C143.67,285.42,143.74,284.14,143.8,282.87Z" style="fill:#790d03"/><path d="M139.9,283.78l-1.12,0c.56-1.14.83-2.44,1.83-3.34C140.51,281.61,141.41,283,139.9,283.78Z" style="fill:#c26d2a"/><path d="M266.06,150.19a2.47,2.47,0,0,1-2-.95,4,4,0,0,1,2.66-.37Z" style="fill:#798e33"/><path d="M250.78,125.19q-.1-3.78-.2-7.57a8.75,8.75,0,0,1,2.36-.54c4.61.27,8.6-1.7,12.68-3.38.32,1.11-.26,1.87-.92,2.68a7.62,7.62,0,0,0-2,5.43,7.43,7.43,0,0,1-4.3.69A10.08,10.08,0,0,0,250.78,125.19Z" style="fill:#1d632d"/><path d="M265.6,113.76c-.09-.77.25-1.12,1-1.05C266.66,113.42,266.33,113.78,265.6,113.76Z" style="fill:#1d632d"/><path d="M138.61,345.13c-2.09-1.32-4.58-1.3-6.84-2-.66-1.17,0-1.83.94-2.35l8.94-5c2,.94.7,2.75,1.1,4.11l-.06.9C141.66,342.55,140.87,344.53,138.61,345.13Z" style="fill:#430502"/><path d="M124.67,337.68l8-1.07,0,2.3c-1.6,3.53-4.43,4-7.82,3.13C123.37,340.67,123.69,339.2,124.67,337.68Z" style="fill:#430502"/><path d="M124.67,337.68c.19,1.25-.32,2.59.4,3.71,3.55,2,5.28-1.23,7.68-2.48l0,1.85c-.32.78-.63,1.57-.94,2.35-2.69.49-5.36.08-8-.15-.88-1.11-2.06-2-2.54-3.39a1.79,1.79,0,0,1,.63-1.93Z" style="fill:#9f2a11"/><path d="M138.61,345.13a10,10,0,0,1,4.08-4.34c.12,3.12,2.52,3.89,4.74,4.4.62,1.7-.07,2.46-1.32,3,.54.9,1.95,1.24,1.62,2.63l-7,3C140.83,350.72,140.81,347.65,138.61,345.13Z" style="fill:#9f2a11"/><path d="M96.7,286.8c3.06-2.89,6-2.9,9.07,0-.39,2.18.79,4.65-1.29,6.73-2.85.57-5.73,1-7.78-2.65Z" style="fill:#790d03"/><path d="M111.06,285.35l2.62.76c1.64,1.86,1.51,3.73,0,5.6L109.83,293c-.58-.91-1.16-1.81-1.73-2.72l1.15-.81-.51-2.64Z" style="fill:#5d1109"/><path d="M109.86,292.91a5.1,5.1,0,0,1-2,2.33C107.49,293.58,108,292.64,109.86,292.91Z" style="fill:#5d1109"/><path d="M114.71,267.63l-3.95,1c-.77-1.83-2.49-1.68-4-2l0-3.77.5-.54a5.15,5.15,0,0,1,3.64-.38c1.9.71,3.63,1.65,4.49,3.64A2.06,2.06,0,0,1,114.71,267.63Z" style="fill:#d58e11"/><path d="M105.07,276l-2.91-1.37c0-1.29,1.08-1.78,2-2.56C105.46,272.91,106.2,273.89,105.07,276Z" style="fill:#790d03"/><path d="M97.15,275.68c-.76-1.34-.36-2.38-.22-3.48a4.19,4.19,0,0,1,2.43,1.94C99.23,275.32,98.43,275.65,97.15,275.68Z" style="fill:#790d03"/><path d="M37.71,317.82l0,6.05a2.34,2.34,0,0,0-3-.05c-1.31-1.87-1-4-.92-6.05Z" style="fill:#1e2c75"/><path d="M106.69,262.88c-1.26.44-2.93,2.13-3-1-.42-1.72.81-1.42,1.77-1.45,1,.49,1.67,1.14,1.28,2.37Z" style="fill:#9f2a11"/><path d="M105.67,261c-.84-.09-1.65-.13-2,.9a3.16,3.16,0,0,1-2-2l5.06-.15C107,260.64,106.66,261.1,105.67,261Z" style="fill:#ef8e0c"/><path d="M99.54,262c.56-.12.82.27.95.71s-.28.82-.72.95-.84-.23-1-.69S99.09,262.17,99.54,262Z" style="fill:#790d03"/><path d="M106.66,302.85v1c-1.31.37-.66,1.7-1.41,2.72-1.17-.75-2.25-1.47-2.4-3C104,302.36,105.41,303,106.66,302.85Z" style="fill:#790d03"/><path d="M100.63,303.35a4.29,4.29,0,0,1-2.5,3.17l-1-3.26C98.14,302.59,99.21,302.73,100.63,303.35Z" style="fill:#790d03"/><path d="M77.66,305.78a7.46,7.46,0,0,0,.06-.95l4-3.14a2.92,2.92,0,0,0,2.1,2.16l-4,3.11C79,306.8,78,307,77.66,305.78Z" style="fill:#3658c7"/><path d="M240.71,306.89c1.82-.74,4.41-.76,3.66-3.91l3.58-.18c2.61,2.44,5.67,4.5,6.79,8.58-3,2.38-6,4.77-10.15,4.44a14.6,14.6,0,0,1-3.88-3.78Z" style="fill:#8ca23e"/><path d="M261.78,239.79c-3.14,3.21-6.18,6.56-10.64,8a39.37,39.37,0,0,1,1.7-5.19C254.72,238.65,257.11,238,261.78,239.79Z" style="fill:#1d632d"/><path d="M48.65,328.62c.16-2.14,2-2.13,3.26-2.75,3,1.64,1.51,3.54.57,5.4-.68-.29-1.49-.41-1.81-1.24a1.73,1.73,0,0,0-1.52-1.1A1.45,1.45,0,0,0,48.65,328.62Z" style="fill:#1e2c75"/><path d="M42.74,324.83c1.59-.73,2.64-2.4,4.66-2.54a5.55,5.55,0,0,1-.63,5.3A10,10,0,0,1,42.74,324.83Z" style="fill:#1e2c75"/><path d="M49.15,328.93c.83-.07,1.43.16,1.52,1.1A2.06,2.06,0,0,1,49.15,328.93Z" style="fill:#142058"/><path d="M244.71,86.77c.59-2.11,2.82-3.35,3-5.67l11,2.07A38.35,38.35,0,0,1,244.71,86.77Z" style="fill:#798e33"/><path d="M239.73,73a9,9,0,0,1,4.36-4.23,2.49,2.49,0,0,0,1.63-2.68,19.33,19.33,0,0,1,6.08,1.47c.86,2.78-2.37,2-3,3.45l0-.06q-.56.36-1.08.78A20.62,20.62,0,0,1,239.73,73Z" style="fill:#798e33"/><path d="M248.78,71c-.05-2.08,2.67-1.72,3-3.45,2.56.34,5.23.17,7.91,2C255.83,70.07,252.47,71.51,248.78,71Z" style="fill:#1d632d"/><path d="M237.47,58.5c.1.73.19,1.45.29,2.18-.77.09-1.54.2-2.09-.68C235.57,58.77,236.8,59,237.47,58.5Z" style="fill:#798e33"/><path d="M237.72,73.65a.93.93,0,0,1,1.38-.55A1.2,1.2,0,0,1,237.72,73.65Z" style="fill:#798e33"/><path d="M247.74,71.69a.91.91,0,0,1,1.08-.78C248.89,71.76,248.32,71.72,247.74,71.69Z" style="fill:#1d632d"/><path d="M265.64,31.62H251.41c-.88-.9-.52-1.89-.45-2.83.95-2.11,2.12-.73,3.19-.17,1.36.72,2.57.7,3.48-.65a1.94,1.94,0,0,0,0-2.34c-1-1.36-2.25-1.05-3.53-.35-1,.53-1.87,1.55-3.12.55V20.17A63.14,63.14,0,0,1,263.7,20C266.45,23.52,265.75,27.62,265.64,31.62Z" style="fill:#1d632d"/><path d="M251.71,35.85a40,40,0,0,1,8,0C256.74,37.28,254.81,37.28,251.71,35.85Z" style="fill:#1d632d"/><path d="M251,25.83c1.53.28,1.66-1.36,2.58-1.88a26.47,26.47,0,0,1,2.53-1.11,4.19,4.19,0,0,1,3.46,2.74c.75,1.93-.11,3.6-1.81,4.66s-3.75,1-4.68-.89c-.71-1.44-1.2-1.05-2.08-.56A4.55,4.55,0,0,1,251,25.83Z" style="fill:#798e33"/><path d="M246.73,31.71c-1-3.44-2.36-6.92,1-9.92.05,2.75.11,5.5.15,8.25C247.89,30.84,247.89,31.69,246.73,31.71Z" style="fill:#1d632d"/><path d="M248.17,128.73c1.26,1.87.8,4,.74,6-.8.65-1.48,1.41-2.22,2.12h-9.22c-1.23-2.05-.05-3.8,0-5.53.22-4.6,1.25-5.33,6.26-5.4A8.77,8.77,0,0,0,248.17,128.73Z" style="fill:#798e33"/><path d="M248.17,128.73c-1.27,0-2.55.35-3.81-.13-1-.74-.51-1.77-.59-2.69C246.34,125.13,246.79,127.66,248.17,128.73Z" style="fill:#1d632d"/><path d="M246.69,136.84c-.23-1.72.76-2.16,2.22-2.12C249.36,136.67,248.45,137.2,246.69,136.84Z" style="fill:#1d632d"/><path d="M243.9,147.93c1.75,2.14,3.31,4.47,5.75,5.93l.36,2.39c.73,1,1.78.62,2.72.71,2.4,1,5.13,1.65,5.16,5.06-5.6,1.61-11.15,1-16.63-.52-3.06-.87-4.51-2.85-4.56-5.73s1.17-4.37,4-5.63C241.92,149.62,244.07,150.41,243.9,147.93Z" style="fill:#1d632d"/><path d="M257.89,162c-.85-2.57-4.32-2.48-5.16-5.06V150c2.65-.65,4.89-.79,7.07.55.47.9,1.12,1.38,2.17.93,3.82,3.5,3.48,7.22-.85,9.6A6.39,6.39,0,0,1,257.89,162Z" style="fill:#798e33"/><path d="M251.71,145.82v-2.47a10.53,10.53,0,0,1,1.51-.5,3.11,3.11,0,0,1,.95.2c.9.78.48,1.83.55,2.77Z" style="fill:#1d632d"/><path d="M262,151.5c-.22.76-.1,1.67-1.07,2.19-2-.38-.95-2-1.1-3.12C260.58,150.75,261.43,150.76,262,151.5Z" style="fill:#1d632d"/><path d="M251.74,113.55a7.44,7.44,0,0,1-4.43-.16c-.79-3-2.3-1.22-3.64-.54-5.52-1.46-7.11-3-7-6.67.13-3.13,2.59-5.35,7.1-6.25a15.17,15.17,0,0,1,2.94,0c1,.76,1.08,2.36,2.54,2.68,1.31-.52,1.45-2,2.45-2.82l5,.25C255.59,104.71,253.48,109.06,251.74,113.55Z" style="fill:#798e33"/><path d="M251.74,113.55c-.45-5.29,2.06-9.49,5-13.55,1.24-.34,2.23.46,3.32.76a5.82,5.82,0,0,1,4.52,5.8c.1,2.82-1.63,4.56-4.14,5.55C257.63,113.2,254.79,114,251.74,113.55Z" style="fill:#1d632d"/><path d="M251.74,99.75c0,.83.07,1.67,0,2.49a2.53,2.53,0,0,1-5,.14,23,23,0,0,1,0-2.49A11.51,11.51,0,0,1,251.74,99.75Z" style="fill:#1d632d"/><path d="M243.67,112.85c1.39-2.72,2-2.77,4.76-.41l-1.12,1Z" style="fill:#1d632d"/><path d="M255.72,195.71l7.94-4.9.21,4.48C261.11,196.28,258.4,195.78,255.72,195.71Z" style="fill:#798e33"/><path d="M246.63,199.45c-1.88,2.86-4.91,3-7.86,3.33.19-1.31,1.84-1.73,1.9-3.11C242.66,199.51,244.63,199,246.63,199.45Z" style="fill:#1d632d"/><path d="M47.83,316l-.2,3.34c-1.71,1-2.73.33-3.63-.82C44.51,316.79,46.15,316.76,47.83,316Z" style="fill:#253fa4"/><path d="M190.81,295.66l.13,3.22c-2.28,2.5-5.39,1.78-8.23,2.11-2.33,0-4.43-.91-7.27-1.69,4.15-2.23,8.27-2.66,12.24-3.57A3.58,3.58,0,0,1,190.81,295.66Z" style="fill:#f8eb8b"/><path d="M182.71,301c2.47-1.76,5.46-1.53,8.23-2.11,1.08,1.51.68,3,.12,4.73C188.21,302.68,185.22,302.63,182.71,301Z" style="fill:#efd73b"/><path d="M190.81,295.66l-3.13.07C188.7,294.77,189.74,294.25,190.81,295.66Z" style="fill:#efd73b"/><path d="M193.66,308.09c-.5.94-.75.5-1-.17A1.17,1.17,0,0,1,193.66,308.09Z" style="fill:#f8eb8b"/><path d="M172.73,317.11c3-1.13,5.91-2.85,9.4-1.38,2,.85,3.91,1.67,5.06,3.77,1.61-3.14,4.38-3.72,7.48-3.76,2.87-.05,5.91.66,8.09-2,1.43,1.64.81,3.07.8,4.37-1.92,1.42-4.11.26-5.9,1.19-9,.36-9.48,1.59-8.58,11.05,4.63.9,9.44-.05,13.95.52.94.86.65,1.67.37,2.88l-20.68.41H171.47a29.46,29.46,0,0,1,.55-16.31Z" style="fill:#484642"/><path d="M136.56,268a17.1,17.1,0,0,0-6.89-1.27c-2.33-1-4.13.92-6.25,1.1a3.72,3.72,0,0,1-2.9-.81c-1-2.32.59-3.36,2.19-4.38,1.59-.67,3.08-2,5-.83,3.06-.06,5.59,1.76,8.43,2.31C137.06,265.35,136.55,266.69,136.56,268Z" style="fill:#d58e11"/><path d="M127.69,261.79c-1.94-.55-2.75,1.18-4,2-4.35.4-8.6-.36-12.86-1l-4.07.05L105.67,261a1.42,1.42,0,0,0,1.07-1.26c.89-1.52,2.45-1.11,3.38-.61,1.88,1,3.75.59,5.63.67l5,0C122.88,261,125.64,260.14,127.69,261.79Z" style="fill:#c26d2a"/><path d="M108.77,347.24l1.88,0v4.19c-2.12.39-4,2-6.64,1.2C105.08,350.27,107.37,349.13,108.77,347.24Z" style="fill:#430502"/><path d="M126.67,347.17a9.52,9.52,0,0,1,4.08-.05c-.74,3.54-4.38,2-6.33,4.11C123.91,348.69,125.51,348.07,126.67,347.17Z" style="fill:#5d1109"/><path d="M130.14,320.25c1.42.43,2.91.49,4.26,1.29,4.22,2.49,4.45,7.42.38,10.14a13.38,13.38,0,0,1-6.61,1.95c-2.48.18-5,.05-7.47.06a2.07,2.07,0,0,1-.33-2.72C123.38,327.18,125.85,322.88,130.14,320.25Z" style="fill:#5d1109"/><path d="M115.71,332.76c-2.54-.23-4.58-1.17-5.4-3.82,1.49-3.25,4-5.72,6.29-8.4,2.3-1.11,4.73-.9,7.15-.71C123.69,325.77,119.6,329.2,115.71,332.76Z" style="fill:#5d1109"/><path d="M115.71,332.76c2.43-3.57,4.83-7.16,7.3-10.7a3.62,3.62,0,0,0,.74-2.23,16.2,16.2,0,0,1,6.39.42c-1.79,4.28-5.61,7-8.4,10.45a4.77,4.77,0,0,0-1,3C118.91,334,117.32,333.36,115.71,332.76Z" style="fill:#b33b12"/><path d="M116.6,320.54a17.19,17.19,0,0,1-6.29,8.4C109.17,323.5,110.61,321.58,116.6,320.54Z" style="fill:#b33b12"/><path d="M121.83,337.64c0,.73,0,1.46-.07,2.19a3.19,3.19,0,0,1-1.07,3.07,4.45,4.45,0,0,1-3,.1,10.28,10.28,0,0,1,1.13-5.66Z" style="fill:#430502"/><path d="M120.69,342.9c.23-1.06-.6-2.5,1.07-3.07,2.54-.15,1.84,1.76,2,3.13A5.46,5.46,0,0,1,120.69,342.9Z" style="fill:#790d03"/><path d="M183.75,265.94c3.69-.18,7.42-.86,11,.83,4.16,4.22,3.67,7-2.06,11.7a4.78,4.78,0,0,1-3,0C181.87,276.65,179.74,272.13,183.75,265.94Z" style="fill:#f8eb8b"/><path d="M183.75,265.94a4.53,4.53,0,0,1-.06,1c-1.54,6.47-.86,7.9,5.24,11a3.76,3.76,0,0,1,.73.6H174.38C172.67,269.56,175.21,266.19,183.75,265.94Z" style="fill:#efd73b"/><path d="M192.65,278.47c.78-2.64,3.15-4.35,4.09-6.85,0-1.94-1.54-3.18-2-4.85,4.13.26,5.47,3.1,5.86,6.59a10.85,10.85,0,0,1-.33,5.15A23.87,23.87,0,0,1,192.65,278.47Z" style="fill:#efd73b"/><path d="M133.71,286.78c.26,1.45-1.33,2.44-1,3.91-2.69.05-5.37.14-7.84,1.41-2.46-3.31-2.51-6.9-1.28-10.65a11.54,11.54,0,0,1,2-5.58,31,31,0,0,0,7-5c2.24-.22,3.34,1.15,4.11,3-.06,2.86.24,5.82-2,8.16-.47,1-1.29.94-2.17.77a3.82,3.82,0,0,1-.68-3.86c.08-.52,1-.65.59-1.44a.84.84,0,0,1-.38,1c-1.48,1.53-5.47,1.86-2.59,5.45l.24,2.85c.11.88.49.66.91.22Z" style="fill:#c26d2a"/><path d="M118.75,296.24c3.37,2.64,2.69,6.29,2.67,10.15H110.94c-.51-.34-.39-1-.4-1.64a31.6,31.6,0,0,0,5-5.38,11.35,11.35,0,0,1,.76-1.06A8.47,8.47,0,0,1,118.75,296.24Z" style="fill:#790d03"/><path d="M130.72,294.71c2.14-.42,4-.13,5.08,2.07.1,3.83.13,7.64-4.21,9.52-1.63-.12-3.32.38-5.38-.7C126.27,301.49,128,297.93,130.72,294.71Z" style="fill:#5d1109"/><path d="M123.63,281.45c.62,3.53,1.42,7,1.28,10.65l-2.25,3-3.26-2.77a12.52,12.52,0,0,1,.17-6.76Z" style="fill:#790d03"/><path d="M130.72,294.71c-.6,3.67-2.37,6.9-4.19,10.35,1.73,1.31,3.57.53,5.19.84q.51.25.33.48a.46.46,0,0,1-.35.22h-6.63c-.86-1.9-.48-3.85-.3-5.78a1.26,1.26,0,0,0,.15-1.95C125.56,295.67,127.35,294.09,130.72,294.71Z" style="fill:#b33b12"/><path d="M119.57,285.56c1.59,2.3,1.36,4.54-.17,6.76l-1.67-.56c-.64-.46-1.29-.78-2-.16l-2,.11,0-5.6Z" style="fill:#b33b12"/><path d="M131.7,306.6c0-.23,0-.47,0-.7,2.49-2.54,3.17-5.88,4.08-9.12,2.1,3,.74,6.3,1,9.47A8.54,8.54,0,0,1,131.7,306.6Z" style="fill:#c26d2a"/><path d="M116.73,298.81c-1,3.1-2.83,5.31-6.19,5.94a1,1,0,0,1,0-.75,3.37,3.37,0,0,0,.1-4.23,2.78,2.78,0,0,1,1.76-3.25C113.84,297.29,115.61,297.44,116.73,298.81Z" style="fill:#c26d2a"/><path d="M116.73,298.81c-1.86,0-4.12.8-4.34-2.29l.09-.07c.63.21.89-.27,1.2-.65l2.1-.13c.7.95,1.59,1.84.92,3.18Z" style="fill:#790d03"/><path d="M116.7,298.85c-.21-1.09-1.23-1.94-.92-3.18a3.19,3.19,0,0,1,3,.57A3,3,0,0,1,116.7,298.85Z" style="fill:#c26d2a"/><path d="M124.92,298.87c.73.07,1.67,0,1.6,1.06s-1,.84-1.75.89Z" style="fill:#790d03"/><path d="M110.63,299.77c1.63,1.72,1.61,2.61-.1,4.23A8.65,8.65,0,0,1,110.63,299.77Z" style="fill:#790d03"/><path d="M115.71,291.6c.05-.55-.12-1.2.61-1.49a2.66,2.66,0,0,1,1.41,1.65Z" style="fill:#5d1109"/><path d="M129,311.89l-.22-1.77.95-.06C129.72,310.77,129.83,311.52,129,311.89Z" style="fill:#b33b12"/><path d="M113.68,295.8c-.18.62-.51,1-1.2.65A1,1,0,0,1,113.68,295.8Z" style="fill:#c26d2a"/><path d="M121.08,277.14c-.31,1.53-.77,3-2.25,3.83a11,11,0,0,1-7.26-8.27c1-1.3,2.45-1,3.76-1.25C119.79,270.77,120.75,273.63,121.08,277.14Z" style="fill:#790d03"/><path d="M121.08,277.14c-1.47-2.35-2.5-5.15-5.75-5.69.43-1.37,1.29-2.82-.62-3.82l0-1.79c2.11-.4,3.85,1.35,6,1l3,0c.8,2.19-2.1,3.7-1.07,5.93A8.77,8.77,0,0,1,121.08,277.14Z" style="fill:#c26d2a"/><path d="M111.57,272.7l7.26,8.27c-1.16,1.18-2.39,2.15-4.2,1.42-.47-1.55-1.33-2.3-3-1.41a3.79,3.79,0,0,1-1.81-3.21,2.92,2.92,0,0,0,.08-2.85A2.29,2.29,0,0,1,111.57,272.7Z" style="fill:#c26d2a"/><path d="M132.81,277.92c-.07,1.61-.13,3.21-.2,4.82-1,.51-2.41-.26-3.06,1.12l-1.77.74c.36-1.9-1.47-3.1-.9-5.28l5.76-1.57Z" style="fill:#790d03"/><path d="M132.66,270.84c-1.91,4.9-1.91,4.9-7,5C127.39,270.88,127.69,270.66,132.66,270.84Z" style="fill:#790d03"/><path d="M122.63,272.79c-2.49-2.49.18-4.05,1.07-5.93,2-.81,3.93-2.09,6-.15C126.05,267.26,124.15,269.8,122.63,272.79Z" style="fill:#9f2a11"/><path d="M134.78,282c1-2.63.2-5.72,2-8.16C138.36,278.32,138.13,279.26,134.78,282Z" style="fill:#9f2a11"/><path d="M111.66,281c.94-2,.94-2,3.75-1.71.75,1.29-.88,2-.78,3.12C113.55,282.11,112.35,282.08,111.66,281Z" style="fill:#9f2a11"/><path d="M130.7,286.93v2.36c-.65-.81-2.55-1.23-.91-2.58Z" style="fill:#790d03"/><path d="M109.93,274.92c1.21,1,1.31,1.94-.08,2.85Z" style="fill:#790d03"/><path d="M120.69,266.84c-1,.2-.91,1.29-1.55,1.8-2.14.09-2.62-2.39-4.4-2.8l-3.92-3.09c.08-.15.12-.41.22-.43,2.74-.67,9.44.11,12.64,1.46Q120.62,263.78,120.69,266.84Z" style="fill:#790d03"/><path d="M180.74,330.48c-.81.08-1.62.22-2.44.25-1.3,0-2.61,0-4,0-1-2.35-.58-4.68-.45-6.9a5.37,5.37,0,0,1,5.2-5c3.19-.18,4.84,1.07,5.82,4.46C184.85,326.5,181.9,328,180.74,330.48Z" style="fill:#efd73b"/><path d="M180.74,330.48a4.71,4.71,0,0,1,2.62-5.54c.73-.41,1.38-.71,1.47-1.61,1.65,2.18.66,4.57.81,7.05A9.1,9.1,0,0,1,180.74,330.48Z" style="fill:#f8eb8b"/><path d="M132.64,277.75l.56-.76c.69.65.06.75-.39.93Z" style="fill:#790d03"/><path d="M45.63,397v41.78H40.24V397Z" style="fill:#868589"/><path d="M55.49,416.87c0-3.1-.06-5.64-.25-8.12h4.84l.31,5h.12a11,11,0,0,1,9.92-5.64c4.16,0,10.6,2.47,10.6,12.77v17.91H75.58V421.46c0-4.84-1.8-8.87-7-8.87A8,8,0,0,0,61,420.71v18H55.49Z" style="fill:#868589"/><path d="M91.2,408.75l5.89,16.86a77.93,77.93,0,0,1,2.42,7.69h.19c.68-2.48,1.55-5,2.54-7.69l5.83-16.86h5.7l-11.78,30H96.78l-11.4-30Z" style="fill:#868589"/><path d="M121.33,424.74c.13,7.38,4.84,10.42,10.3,10.42a19.66,19.66,0,0,0,8.3-1.55l.93,3.9a24.23,24.23,0,0,1-10,1.86c-9.23,0-14.75-6.07-14.75-15.12s5.33-16.18,14.07-16.18c9.8,0,12.4,8.61,12.4,14.13a18.89,18.89,0,0,1-.19,2.54Zm16-3.9c.06-3.47-1.43-8.87-7.56-8.87-5.52,0-7.94,5.08-8.37,8.87Z" style="fill:#868589"/><path d="M148.61,433.17a14.29,14.29,0,0,0,7.2,2.17c4,0,5.82-2,5.82-4.46s-1.55-4-5.58-5.52c-5.39-1.92-7.93-4.9-7.93-8.49,0-4.84,3.9-8.8,10.35-8.8a14.88,14.88,0,0,1,7.38,1.86l-1.36,4a11.74,11.74,0,0,0-6.14-1.73c-3.23,0-5,1.86-5,4.09,0,2.48,1.79,3.59,5.7,5.08,5.21,2,7.87,4.59,7.87,9.05,0,5.27-4.09,9-11.22,9a17.13,17.13,0,0,1-8.43-2Z" style="fill:#868589"/><path d="M180.48,400.13v8.62h7.81v4.15h-7.81v16.18c0,3.72,1.06,5.83,4.09,5.83a12.52,12.52,0,0,0,3.17-.37l.24,4.09a13.4,13.4,0,0,1-4.83.74,7.55,7.55,0,0,1-5.89-2.29c-1.55-1.61-2.11-4.28-2.11-7.81V412.9H170.5v-4.15h4.65v-7.19Z" style="fill:#868589"/><path d="M200.51,400.32a3.38,3.38,0,0,1-6.76,0,3.32,3.32,0,0,1,3.41-3.41A3.23,3.23,0,0,1,200.51,400.32Zm-6.08,38.43v-30h5.46v30Z" style="fill:#868589"/><path d="M208.94,416.87c0-3.1-.06-5.64-.25-8.12h4.84l.31,5H214a11,11,0,0,1,9.92-5.64c4.15,0,10.6,2.47,10.6,12.77v17.91H229V421.46c0-4.84-1.8-8.87-6.95-8.87a8,8,0,0,0-7.68,8.12v18h-5.46Z" style="fill:#868589"/><path d="M269.2,408.75c-.12,2.17-.25,4.58-.25,8.24v17.42c0,6.89-1.36,11.1-4.27,13.71s-7.13,3.59-10.92,3.59c-3.59,0-7.56-.87-10-2.48l1.37-4.15a16.9,16.9,0,0,0,8.8,2.35c5.58,0,9.67-2.91,9.67-10.47v-3.35h-.12a10.72,10.72,0,0,1-9.55,5c-7.44,0-12.77-6.32-12.77-14.63,0-10.17,6.63-15.93,13.51-15.93,5.21,0,8.06,2.72,9.37,5.2h.12l.25-4.52Zm-5.64,11.84a7.7,7.7,0,0,0-.31-2.48,7.87,7.87,0,0,0-7.63-5.77c-5.2,0-8.92,4.4-8.92,11.35,0,5.89,3,10.79,8.86,10.79a8,8,0,0,0,7.57-5.58,9.52,9.52,0,0,0,.43-2.92Z" style="fill:#868589"/><path d="M297.23,400.32a3.38,3.38,0,0,1-6.76,0,3.32,3.32,0,0,1,3.41-3.41A3.24,3.24,0,0,1,297.23,400.32Zm-6.08,38.43v-30h5.46v30Z" style="fill:#868589"/><path d="M305.66,416.87c0-3.1-.06-5.64-.25-8.12h4.84l.31,5h.12a11,11,0,0,1,9.92-5.64c4.15,0,10.6,2.47,10.6,12.77v17.91h-5.45V421.46c0-4.84-1.8-8.87-6.95-8.87a8,8,0,0,0-7.69,8.12v18h-5.45Z" style="fill:#868589"/><path d="M360.15,425.61l-4.34,13.14h-5.57L364.43,397h6.51l14.26,41.78h-5.76L375,425.61Zm13.71-4.22-4.1-12c-.93-2.73-1.55-5.21-2.17-7.63h-.12c-.62,2.48-1.3,5-2.11,7.57l-4.09,12.08Z" style="fill:#868589"/><path d="M391.28,438.75V412.9h-4.22v-4.15h4.22v-1.43c0-4.21.93-8.06,3.47-10.48a10.48,10.48,0,0,1,7.32-2.79,12.77,12.77,0,0,1,4.65.87l-.75,4.22a8.15,8.15,0,0,0-3.47-.68c-4.65,0-5.83,4.09-5.83,8.68v1.61h7.26v4.15h-7.26v25.85Z" style="fill:#868589"/><path d="M408.83,418.11c0-3.54-.07-6.57-.25-9.36h4.77l.19,5.89h.25c1.36-4,4.65-6.57,8.3-6.57a6.05,6.05,0,0,1,1.55.18v5.15a7.83,7.83,0,0,0-1.86-.19c-3.84,0-6.57,2.91-7.31,7a14.66,14.66,0,0,0-.25,2.54v16h-5.39Z" style="fill:#868589"/><path d="M435.42,400.32a3.38,3.38,0,0,1-6.75,0,3.31,3.31,0,0,1,3.4-3.41A3.23,3.23,0,0,1,435.42,400.32Zm-6.07,38.43v-30h5.45v30Z" style="fill:#868589"/><path d="M465.24,437.64a20.11,20.11,0,0,1-8.61,1.73c-9.06,0-14.94-6.13-14.94-15.31s6.32-15.93,16.11-15.93a18.16,18.16,0,0,1,7.57,1.55l-1.24,4.21a12.71,12.71,0,0,0-6.33-1.42c-6.88,0-10.6,5.08-10.6,11.34,0,6.95,4.47,11.22,10.42,11.22a15.51,15.51,0,0,0,6.69-1.48Z" style="fill:#868589"/><path d="M488.25,438.75l-.44-3.78h-.18a11.18,11.18,0,0,1-9.18,4.47c-6.08,0-9.18-4.28-9.18-8.62,0-7.26,6.45-11.22,18.05-11.16V419c0-2.48-.69-7-6.82-7a14.94,14.94,0,0,0-7.82,2.24l-1.24-3.6a18.65,18.65,0,0,1,9.86-2.66c9.18,0,11.41,6.26,11.41,12.27v11.22a41.31,41.31,0,0,0,.5,7.19Zm-.81-15.31c-5.95-.12-12.71.93-12.71,6.76a4.83,4.83,0,0,0,5.15,5.21,7.46,7.46,0,0,0,7.25-5,5.49,5.49,0,0,0,.31-1.73Z" style="fill:#868589"/><path d="M506.35,396.29A71,71,0,0,1,500.52,411l-3.47.43a86.65,86.65,0,0,0,3.66-14.57Z" style="fill:#868589"/><path d="M507.1,433.17a14.22,14.22,0,0,0,7.19,2.17c4,0,5.82-2,5.82-4.46s-1.55-4-5.58-5.52c-5.39-1.92-7.93-4.9-7.93-8.49,0-4.84,3.91-8.8,10.35-8.8a14.88,14.88,0,0,1,7.38,1.86l-1.36,4a11.74,11.74,0,0,0-6.14-1.73c-3.23,0-5,1.86-5,4.09,0,2.48,1.79,3.59,5.7,5.08,5.21,2,7.87,4.59,7.87,9.05,0,5.27-4.09,9-11.22,9a17.13,17.13,0,0,1-8.43-2Z" style="fill:#868589"/><path d="M574.92,437.39a26.79,26.79,0,0,1-11,2c-11.78,0-20.65-7.44-20.65-21.14,0-13.08,8.87-21.94,21.82-21.94,5.21,0,8.5,1.11,9.92,1.86l-1.3,4.4a19.65,19.65,0,0,0-8.43-1.74c-9.8,0-16.31,6.26-16.31,17.24,0,10.23,5.89,16.8,16.06,16.8a21.51,21.51,0,0,0,8.81-1.74Z" style="fill:#868589"/><path d="M581.31,418.11c0-3.54-.06-6.57-.25-9.36h4.77l.19,5.89h.25c1.36-4,4.65-6.57,8.31-6.57a6.11,6.11,0,0,1,1.55.18v5.15a7.89,7.89,0,0,0-1.86-.19c-3.85,0-6.58,2.91-7.32,7a15.71,15.71,0,0,0-.25,2.54v16h-5.39Z" style="fill:#868589"/><path d="M604,424.74c.12,7.38,4.84,10.42,10.29,10.42a19.71,19.71,0,0,0,8.31-1.55l.93,3.9a24.27,24.27,0,0,1-10,1.86c-9.24,0-14.76-6.07-14.76-15.12s5.33-16.18,14.07-16.18c9.8,0,12.4,8.61,12.4,14.13a21.18,21.18,0,0,1-.18,2.54Zm16-3.9c.07-3.47-1.42-8.87-7.56-8.87-5.52,0-7.93,5.08-8.37,8.87Z" style="fill:#868589"/><path d="M648.64,438.75,648.2,435H648a11.18,11.18,0,0,1-9.18,4.47c-6.07,0-9.17-4.28-9.17-8.62,0-7.26,6.44-11.22,18-11.16V419c0-2.48-.68-7-6.82-7a14.9,14.9,0,0,0-7.81,2.24l-1.24-3.6a18.62,18.62,0,0,1,9.85-2.66c9.18,0,11.41,6.26,11.41,12.27v11.22a42.31,42.31,0,0,0,.5,7.19Zm-.81-15.31c-6-.12-12.71.93-12.71,6.76a4.83,4.83,0,0,0,5.15,5.21,7.46,7.46,0,0,0,7.25-5,5.49,5.49,0,0,0,.31-1.73Z" style="fill:#868589"/><path d="M668.23,400.13v8.62H676v4.15h-7.81v16.18c0,3.72,1.06,5.83,4.09,5.83a12.37,12.37,0,0,0,3.16-.37l.25,4.09a13.4,13.4,0,0,1-4.83.74,7.55,7.55,0,0,1-5.89-2.29c-1.55-1.61-2.11-4.28-2.11-7.81V412.9h-4.65v-4.15h4.65v-7.19Z" style="fill:#868589"/><path d="M688.26,400.32a3.38,3.38,0,0,1-6.76,0,3.32,3.32,0,0,1,3.41-3.41A3.23,3.23,0,0,1,688.26,400.32Zm-6.08,38.43v-30h5.46v30Z" style="fill:#868589"/><path d="M698.8,408.75l5.89,16.86a77.76,77.76,0,0,1,2.41,7.69h.19c.68-2.48,1.55-5,2.54-7.69l5.83-16.86h5.7l-11.78,30h-5.2l-11.41-30Z" style="fill:#868589"/><path d="M728.93,424.74c.12,7.38,4.83,10.42,10.29,10.42a19.71,19.71,0,0,0,8.31-1.55l.93,3.9a24.27,24.27,0,0,1-10,1.86c-9.24,0-14.76-6.07-14.76-15.12s5.33-16.18,14.07-16.18c9.8,0,12.4,8.61,12.4,14.13a21.18,21.18,0,0,1-.18,2.54Zm16-3.9c.07-3.47-1.42-8.87-7.56-8.87-5.52,0-7.94,5.08-8.37,8.87Z" style="fill:#868589"/><path d="M775.68,397v41.78h-5.4V397Z" style="fill:#868589"/><path d="M785.53,416.87c0-3.1-.06-5.64-.25-8.12h4.84l.31,5h.13a11,11,0,0,1,9.91-5.64c4.16,0,10.61,2.47,10.61,12.77v17.91h-5.46V421.46c0-4.84-1.8-8.87-6.94-8.87a8,8,0,0,0-7.69,8.12v18h-5.46Z" style="fill:#868589"/><path d="M845.86,394.74V431c0,2.67.06,5.71.25,7.75h-4.9l-.25-5.2h-.12a11.13,11.13,0,0,1-10.23,5.89c-7.26,0-12.84-6.14-12.84-15.26-.06-10,6.14-16.11,13.46-16.11,4.58,0,7.68,2.17,9,4.58h.12V394.74ZM840.4,421a9.4,9.4,0,0,0-.25-2.29,8,8,0,0,0-7.87-6.33c-5.64,0-9,5-9,11.6,0,6.07,3,11.09,8.87,11.09a8.19,8.19,0,0,0,8-6.51,9.21,9.21,0,0,0,.25-2.35Z" style="fill:#868589"/><path d="M880,430.57c0,3.1.06,5.83.25,8.18h-4.84l-.31-4.89H875a11.31,11.31,0,0,1-9.92,5.58c-4.71,0-10.36-2.61-10.36-13.15V408.75h5.46v16.61c0,5.71,1.74,9.55,6.7,9.55a7.9,7.9,0,0,0,7.19-5,8,8,0,0,0,.49-2.79V408.75H880Z" style="fill:#868589"/><path d="M888.33,433.17a14.22,14.22,0,0,0,7.19,2.17c4,0,5.83-2,5.83-4.46s-1.55-4-5.58-5.52c-5.4-1.92-7.94-4.9-7.94-8.49,0-4.84,3.91-8.8,10.36-8.8a14.87,14.87,0,0,1,7.37,1.86l-1.36,4a11.74,11.74,0,0,0-6.14-1.73c-3.22,0-5,1.86-5,4.09,0,2.48,1.8,3.59,5.7,5.08,5.21,2,7.88,4.59,7.88,9.05,0,5.27-4.1,9-11.22,9a17.14,17.14,0,0,1-8.44-2Z" style="fill:#868589"/><path d="M920.2,400.13v8.62H928v4.15H920.2v16.18c0,3.72,1,5.83,4.09,5.83a12.43,12.43,0,0,0,3.16-.37l.25,4.09a13.5,13.5,0,0,1-4.84.74,7.55,7.55,0,0,1-5.89-2.29c-1.55-1.61-2.11-4.28-2.11-7.81V412.9h-4.64v-4.15h4.64v-7.19Z" style="fill:#868589"/><path d="M934.15,418.11c0-3.54-.07-6.57-.25-9.36h4.77l.19,5.89h.25c1.36-4,4.65-6.57,8.3-6.57a6.05,6.05,0,0,1,1.55.18v5.15a7.77,7.77,0,0,0-1.86-.19c-3.84,0-6.57,2.91-7.31,7a14.66,14.66,0,0,0-.25,2.54v16h-5.39Z" style="fill:#868589"/><path d="M960.74,400.32a3.38,3.38,0,0,1-6.76,0,3.32,3.32,0,0,1,3.42-3.41A3.23,3.23,0,0,1,960.74,400.32Zm-6.07,38.43v-30h5.45v30Z" style="fill:#868589"/><path d="M972.21,424.74c.13,7.38,4.84,10.42,10.29,10.42a19.67,19.67,0,0,0,8.31-1.55l.93,3.9a24.27,24.27,0,0,1-10,1.86c-9.24,0-14.76-6.07-14.76-15.12s5.34-16.18,14.08-16.18c9.79,0,12.4,8.61,12.4,14.13a20.74,20.74,0,0,1-.19,2.54Zm16-3.9c.06-3.47-1.43-8.87-7.57-8.87-5.51,0-7.93,5.08-8.37,8.87Z" style="fill:#868589"/><path d="M999.49,433.17a14.25,14.25,0,0,0,7.19,2.17c4,0,5.83-2,5.83-4.46s-1.55-4-5.58-5.52c-5.39-1.92-7.93-4.9-7.93-8.49,0-4.84,3.9-8.8,10.35-8.8a14.91,14.91,0,0,1,7.38,1.86l-1.37,4a11.66,11.66,0,0,0-6.13-1.73c-3.23,0-5,1.86-5,4.09,0,2.48,1.8,3.59,5.71,5.08,5.21,2,7.87,4.59,7.87,9.05,0,5.27-4.09,9-11.22,9a17.1,17.1,0,0,1-8.43-2Z" style="fill:#868589"/></svg>